<svg xmlns="http://www.w3.org/2000/svg" width="245.021" height="80.949" viewBox="0 0 245.021 80.949"><defs><style>.a{fill:#ff4032;}.b{fill:#dc3024;}.c{fill:#008902;}.d{fill:#007b05;}.e{fill:#959cb5;}.f{fill:#e6e6e6;}.g{fill:#5b5d6e;}.h{fill:#c7cfe2;}.i{fill:#7f8499;}.j{fill:#3F2986;}.k{fill:#7acc80;}.l{fill:#009245;}.m{fill:#ecf0f1;}.n{fill:#ffe356;}.o{fill:#fefefe;}.p{fill:#afb9d2;}.q{fill:#8597b1;}.r{fill:#6c7678;}.s{fill:#c6cbd6;}.t{fill:#e4e7ed;}.u{fill:#ff7069;}.v{fill:#5d718f;}.w{fill:#1b335f;}</style></defs><g transform="translate(-842.871 -217.913)"><g transform="translate(989.077 217.913)"><path class="a" d="M324.885,372.419a8.361,8.361,0,0,0-16.722,0,8.408,8.408,0,0,0,5.106,7.641c.443.147.888.294,1.48.441h.148c.3,0,.444.147.814.147h1.628a1.743,1.743,0,0,0,.814-.147h.148c.444-.147,1.036-.294,1.48-.441a8.1,8.1,0,0,0,5.105-7.641m-24.121,0a15.723,15.723,0,0,1,31.446,0,16.535,16.535,0,0,1-2,7.641l-13.688,23.953-13.763-23.88a17.079,17.079,0,0,1-2-7.715" transform="translate(-233.395 -347.498)"/><path class="b" d="M301.8,357.012a15.782,15.782,0,0,1,11.617,5.111,15.582,15.582,0,0,1,4.069,10.466,16.536,16.536,0,0,1-2,7.641L301.8,404.184l-.012-.021a8.709,8.709,0,0,0,.172-.991,47.649,47.649,0,0,0,6.425-21.766,28.044,28.044,0,0,0-.074-3.526,8.993,8.993,0,0,0,.8-1.2q.112-.2.213-.408a8.151,8.151,0,0,0,.833-3.613v-.073a8.3,8.3,0,0,0-5.149-7.671,51.375,51.375,0,0,0-4.247-7.832c.37,0,.666-.073,1.036-.073" transform="translate(-218.671 -347.669)"/><path class="c" d="M431.319,373.582a8.936,8.936,0,0,0-8.583,9.184v.074a1.888,1.888,0,0,0,3.773-.147,5.11,5.11,0,0,1,4.958-5.29,1.912,1.912,0,0,0-.148-3.821" transform="translate(-371.156 -359.253)"/><path class="c" d="M439.222,350.133a16.05,16.05,0,0,0-15.464,16.606v.074a1.888,1.888,0,0,0,3.774-.147A12.306,12.306,0,0,1,439.3,353.954a1.911,1.911,0,1,0-.074-3.821" transform="translate(-379.356 -342.859)"/><path class="c" d="M424.129,397.021a1.838,1.838,0,1,0,1.924,1.763,1.823,1.823,0,0,0-1.924-1.763" transform="translate(-363.819 -375.638)"/><path class="c" d="M447.133,325.954a23.308,23.308,0,0,0-22.42,24.174v.073a1.889,1.889,0,0,0,3.774-.147v-.073a19.511,19.511,0,0,1,18.793-20.206,1.912,1.912,0,0,0-.148-3.821" transform="translate(-387.563 -325.953)"/><path class="d" d="M445.56,328.154h.5a2.008,2.008,0,0,1,.423,1.248,1.87,1.87,0,0,1-1.814,1.911,19.523,19.523,0,0,0-18.81,19.392q0,.405.017.814v.073a1.752,1.752,0,0,1-.74,1.543,20.31,20.31,0,0,1-.444-4.262,20.769,20.769,0,0,1,20.865-20.72" transform="translate(-384.954 -327.492)"/><path class="d" d="M438.5,353.068a1.957,1.957,0,0,1-1.628,2.939,12.306,12.306,0,0,0-11.764,12.711,1.9,1.9,0,0,1-.666,1.543,11.762,11.762,0,0,1-.444-3.233c0-7.495,6.438-13.593,14.5-13.96" transform="translate(-377.01 -344.911)"/><path class="d" d="M429.123,373.581c2.375,0,2.5,3.749.078,3.821a5.122,5.122,0,0,0-4.964,5.03c0,.087,0,.173.007.26a1.787,1.787,0,0,1-1.186,1.82,9.716,9.716,0,0,1-.146-1.452,10.65,10.65,0,0,1,6.141-9.479h.07" transform="translate(-368.891 -359.253)"/><path class="d" d="M423.9,397.764a1.759,1.759,0,0,1,1.036,1.543,1.823,1.823,0,0,1-1.776,1.91c-.044,0-.087.005-.13.005s-.1,0-.148-.006q-.316-.073-.536-.146a6.283,6.283,0,0,1,1.554-3.306" transform="translate(-362.703 -376.161)"/><g transform="translate(0 29.244)"><g transform="translate(4.576 30.494)"><path class="e" d="M454.172,542.432H385.392v2.288h68.781Z" transform="translate(-385.392 -537.046)"/><path class="e" d="M547.589,524.528a11.643,11.643,0,0,0-10.963,7.674h21.95a11.689,11.689,0,0,0-10.963-7.674Z" transform="translate(-535.291 -524.528)"/></g><path class="f" d="M557.591,431.205H544.6c-1.907,0-2.669,1.763-3.456,3.5l-5.91,13.132a4.635,4.635,0,0,0-.429,2.121l.405,14.7h4.814a11.582,11.582,0,0,1,19.066,0h1.978V434.708a3.484,3.484,0,0,0-3.456-3.5Z" transform="translate(-532.662 -428.786)"/><ellipse class="g" cx="9.533" cy="9.533" rx="9.533" ry="9.533" transform="translate(7.34 32.639)"/><ellipse class="h" cx="5.672" cy="5.672" rx="5.672" ry="5.672" transform="translate(11.201 36.499)"/><ellipse class="i" cx="2.741" cy="2.741" rx="2.741" ry="2.741" transform="translate(14.133 39.431)"/><path class="j" d="M344.758,424.733H387.8c1.287,0,1.716,1.215,2.359,2.359l9.7,17.279a4.5,4.5,0,0,1-.62,4.766l-6.125,8.77c-.739,1.049-1.645,2.193-2.931,2.193H344.758a2.365,2.365,0,0,1-2.359-2.359V427.068a2.365,2.365,0,0,1,2.359-2.359Z" transform="translate(-314.014 -424.244)"/><path class="k" d="M453.3,423.986v34.676a.846.846,0,0,0,1.692,0V423.986A.846.846,0,0,0,453.3,423.986Zm-26.788,0v34.676a.846.846,0,0,0,1.692,0V423.986A.846.846,0,0,0,426.508,423.986Zm6.7,0v34.676a.846.846,0,0,0,1.692,0V423.986A.846.846,0,0,0,433.205,423.986Zm6.7,0v34.676a.846.846,0,0,0,1.692,0V423.986A.846.846,0,0,0,439.9,423.986Zm6.7,0v34.676a.846.846,0,0,0,1.692,0V423.986A.846.846,0,0,0,446.6,423.986Z" transform="translate(-394.001 -423.164)"/><g transform="translate(61.869 0.489)"><path class="k" d="M385.392,424.788h.62l8.079,17.016a4.964,4.964,0,0,1,.429,1.43l.858,6.625a5.442,5.442,0,0,1,.048.62V460.2h-.619v-9.724a5.443,5.443,0,0,0-.048-.62l-.858-6.625a4.315,4.315,0,0,0-.429-1.43Z" transform="translate(-383.938 -424.788)"/><path class="l" d="M403.019,481.511l-5.744,7.936,2.169,1.573,5.744-7.936Z" transform="translate(-397.275 -464.447)"/></g><path class="m" d="M385.605,457.744l-5.6,7.579,1.239.882,5.577-7.579Z" transform="translate(-311.844 -447.341)"/><ellipse class="n" cx="2.05" cy="2.05" rx="2.05" ry="2.05" transform="translate(72.093 9.235)"/><ellipse class="o" cx="0.834" cy="0.834" rx="0.834" ry="0.834" transform="translate(73.309 10.451)"/><path class="p" d="M483.133,547.819H471.741a1.989,1.989,0,0,0-1.978,1.978v2.955a1.988,1.988,0,0,0,1.978,1.978h11.392a1.988,1.988,0,0,0,1.978-1.978V549.8A1.988,1.988,0,0,0,483.133,547.819Z" transform="translate(-437.136 -510.319)"/><ellipse class="n" cx="2.05" cy="2.05" rx="2.05" ry="2.05" transform="translate(60.964 24.154)"/><ellipse class="o" cx="0.834" cy="0.834" rx="0.834" ry="0.834" transform="translate(62.179 25.37)"/><path class="q" d="M569.373,444.118h-8.056a2.811,2.811,0,0,0-2.431,1.978L554.5,456.3a1.633,1.633,0,0,0,1.454,2.288h13.418a2.089,2.089,0,0,0,2.193-1.978V446.1A2.1,2.1,0,0,0,569.373,444.118Z" transform="translate(-549.044 -437.814)"/><path class="r" d="M618.6,529.519h-2.788a1.8,1.8,0,0,0-1.788,1.788v4.338a1.8,1.8,0,0,0,1.788,1.787H618.6Z" transform="translate(-614.025 -497.524)"/><path class="e" d="M406.97,524.528a11.642,11.642,0,0,0-10.963,7.674h21.95a11.689,11.689,0,0,0-10.963-7.674Z" transform="translate(-347.794 -494.034)"/><ellipse class="g" cx="9.533" cy="9.533" rx="9.533" ry="9.533" transform="translate(49.643 32.639)"/><ellipse class="h" cx="5.672" cy="5.672" rx="5.672" ry="5.672" transform="translate(53.504 36.499)"/><ellipse class="i" cx="2.741" cy="2.741" rx="2.741" ry="2.741" transform="translate(56.435 39.431)"/><ellipse class="l" cx="10.391" cy="10.391" rx="10.391" ry="10.391" transform="translate(36.464 6.161)"/><ellipse class="n" cx="9.39" cy="9.39" rx="9.39" ry="9.39" transform="translate(37.465 7.162)"/><g transform="translate(40.313 9.593)"><path class="l" d="M456.125,467.895l-3.217-.882-.882,3.217.739-.429,1.43,2.479h0c1.1,1.907-.286,3.17-2.455,3.17h2.884a2.735,2.735,0,0,0,2.431-1.406,2.667,2.667,0,0,0,0-2.788l-1.692-2.932Z" transform="translate(-444.364 -463.414)"/><path class="l" d="M473.792,480.635l2.359-2.359-2.359-2.36v.906H471.17c-2.192.167-2.479-1.668-1.525-3.313l-1.311,2.288a2.667,2.667,0,0,0,0,2.788,2.782,2.782,0,0,0,2.431,1.406h3.027Z" transform="translate(-467.941 -467.956)"/><path class="l" d="M463.977,456.457l-1.43,2.5-.786-.453.858,3.217,3.217-.858-.715-.405,1.287-2.24c1.549-2.836,3.456.024,3.527.143l-1.1-1.906a2.782,2.782,0,0,0-2.431-1.406A2.735,2.735,0,0,0,463.977,456.457Z" transform="translate(-459.866 -455.051)"/></g><ellipse class="s" cx="2.788" cy="0.786" rx="2.788" ry="0.786" transform="translate(17.731 22.367)"/><path class="t" d="M555.1,497.83a6.063,6.063,0,0,0-2.431.405.176.176,0,0,0,0,.334,7.5,7.5,0,0,0,4.862,0,.176.176,0,0,0,0-.334A6.062,6.062,0,0,0,555.1,497.83Z" transform="translate(-534.579 -475.368)"/><g transform="translate(1.811 0.56)"><path class="u" d="M581.192,425.026h-1.025a.529.529,0,0,0-.525.524v1.335h2.05V425.55a.529.529,0,0,0-.524-.524Z" transform="translate(-568.585 -425.026)"/><path class="u" d="M617.745,507.971h-.906a.59.59,0,0,0-.6.6v2.479a.59.59,0,0,0,.6.6h.906a.59.59,0,0,0,.6-.6v-2.479A.59.59,0,0,0,617.745,507.971Z" transform="translate(-616.244 -483.018)"/></g><path class="s" d="M547.5,443.35h-.334v27.5c.119.1.214.191.334.286V443.35Z" transform="translate(-522.805 -437.261)"/><path class="q" d="M486.071,550.988H473.345a.326.326,0,0,0-.334.334h0a.326.326,0,0,0,.334.334h12.727a.326.326,0,0,0,.334-.334h0A.326.326,0,0,0,486.071,550.988Z" transform="translate(-439.407 -512.534)"/><path class="v" d="M569.93,445.262h-8.055a2.811,2.811,0,0,0-2.431,1.978l-4.385,10.2a1.709,1.709,0,0,0-.143.691,1.719,1.719,0,0,1-.334-1.835l4.385-10.2a2.811,2.811,0,0,1,2.431-1.978h8.055a2.111,2.111,0,0,1,2.192,1.907,2.329,2.329,0,0,0-1.74-.763Z" transform="translate(-549.148 -437.814)"/></g></g><g transform="translate(842.871 252.544)"><path class="w" d="M380.058,672.146H377.3c-1.963,0-2.917-1.009-2.89-3h-4.008c-2.072,0-3.109-1.309-3.109-3.9a5.315,5.315,0,0,1,1.336-3.926,3.487,3.487,0,0,1,2.591-1.118,3.616,3.616,0,0,1,3,1.554h.054v-1.336h1.881v8.616c0,.9.382,1.363,1.145,1.363h2.754Zm-5.754-4.69-.027-4.036a2.919,2.919,0,0,0-2.563-1.691,2.015,2.015,0,0,0-1.691.9,4.218,4.218,0,0,0-.763,2.727,3.349,3.349,0,0,0,.218,1.363,1.287,1.287,0,0,0,1.309.737Zm-2.972-9.462h-2.018v-2.127h2.018Zm3.327,0h-2.018v-2.127h2.018Z" transform="translate(-367.297 -655.867)"/><path class="w" d="M409.473,670.648v1.745h-2.836a10.1,10.1,0,0,1-4.118-.927,9.909,9.909,0,0,1-4.117.927h-3.108v-1.745h3.19a13.825,13.825,0,0,0,2.318-.137,6.5,6.5,0,0,1-2.29-2.645,6.006,6.006,0,0,1-.654-2.645,4.621,4.621,0,0,1,1.39-3.545,5.025,5.025,0,0,1,6.517,0,4.545,4.545,0,0,1,1.418,3.545,6.007,6.007,0,0,1-.654,2.645,6.509,6.509,0,0,1-2.29,2.645,13.817,13.817,0,0,0,2.318.137Zm-4.254-5.426a3.764,3.764,0,0,0-.682-2.318,2.458,2.458,0,0,0-2.045-1.036,2.409,2.409,0,0,0-2.018,1.036,3.764,3.764,0,0,0-.682,2.318,4.761,4.761,0,0,0,1.173,3.19c.627.791,1.145,1.172,1.554,1.172.436,0,.955-.382,1.581-1.172A5,5,0,0,0,405.219,665.221ZM403.5,658.4h-2.018v-2.1H403.5Z" transform="translate(-383.08 -656.114)"/><path class="w" d="M437.7,680.32h-2.427a2.62,2.62,0,0,1-2.072-1.036,3.459,3.459,0,0,1-.682-1.173,3.761,3.761,0,0,1-3.408,2.209H425.54v-1.745h3.027a2.6,2.6,0,0,0,1.418-.409,1.71,1.71,0,0,0,.845-1.5c.055.436.055-1.663-.027-6.3h1.881c0,1.745.028,3.463.055,5.181a3.322,3.322,0,0,0,.846,2.291,2.079,2.079,0,0,0,1.5.736H437.7v1.745Zm-6.38,4.036h-2.045v-2.1h2.045Zm3.327,0H432.63v-2.1h2.018Z" transform="translate(-400.13 -664.041)"/><path class="w" d="M474.762,672.287h-22.85v-1.745h3l-.054-14.425h1.882l-.218,12.161a10.188,10.188,0,0,1,4.444-5.044,6.675,6.675,0,0,1,3.845-.927c3.708.3,5.672,3.026,5.89,8.235h4.063Zm-6-1.745a10.921,10.921,0,0,0-.491-3.217c-.627-2.154-1.8-3.272-3.49-3.354-3.354-.19-6,2.018-7.962,6.572Zm-4.172-10.389h-2.018v-2.1h2.018Z" transform="translate(-414.996 -656.008)"/><path class="w" d="M508.875,671.244c0,2.181-1.309,3.545-3.708,3.545H501.6v-1.745h3.545a1.718,1.718,0,0,0,1.854-1.854c0,.245-.028-1.854-.082-6.353h1.882C508.848,669.144,508.875,671.271,508.875,671.244Zm0-8.59h-2.018v-2.1h2.018Z" transform="translate(-443.004 -658.51)"/><path class="w" d="M550.616,675.9a7.6,7.6,0,0,1-2.127,5.426,6.875,6.875,0,0,1-10.2,0,7.618,7.618,0,0,1-2.127-5.453c-.027-1.418-.082-3.272-.136-5.59h1.882c0,.3.027,2.181.082,5.617a5.7,5.7,0,0,0,1.581,4.09,5.072,5.072,0,0,0,3.817,1.691,5,5,0,0,0,3.818-1.718,5.811,5.811,0,0,0,1.581-4.117l-.082-5.562h1.854Zm-6.326-8.18h-2.018v-2.1h2.018Z" transform="translate(-462.415 -661.363)"/><path class="w" d="M591.386,680.32H576.962l.572-1.745h7.444a8.936,8.936,0,0,0-1.336-4.69c-.764-1.227-1.581-1.827-2.481-1.827v-1.691a4.393,4.393,0,0,1,3.572,2.018,11.8,11.8,0,0,1,2.018,6.19h4.635Z" transform="translate(-485.49 -664.041)"/><path class="w" d="M620.128,674.806c0,3.19-1.664,5.126-4.5,5.126h-7.607v-1.745h3.954a5.368,5.368,0,0,1-1.118-3.381c0-3.163,1.718-5.126,4.553-5.126a4.344,4.344,0,0,1,3.518,1.636A5.317,5.317,0,0,1,620.128,674.806Zm-1.854-.027a4.064,4.064,0,0,0-.872-2.7,2.459,2.459,0,0,0-1.882-.873,2.272,2.272,0,0,0-1.827.873,4.135,4.135,0,0,0-.791,2.7,3.967,3.967,0,0,0,.872,2.7,2.461,2.461,0,0,0,1.882.872,2.236,2.236,0,0,0,1.827-.872A4.138,4.138,0,0,0,618.274,674.779Z" transform="translate(-502.999 -663.654)"/></g></g></svg>
