<svg xmlns="http://www.w3.org/2000/svg" width="1181.965" height="624.979" viewBox="0 0 1181.965 624.979">
  <g id="Group_324" data-name="Group 324" transform="translate(-239.625 -346)">
    <path id="Path_520" data-name="Path 520" d="M824.677,247.748H648.256V209.6a9.119,9.119,0,0,0-9.128-9.128h-51.8V159.825a5.745,5.745,0,0,0-5.745-5.745h-66.76a5.753,5.753,0,0,0-5.745,5.745v40.645H448.206a9.128,9.128,0,0,0-9.154,9.128v38.125H270.86a1.859,1.859,0,0,0-1.85,1.859V756.127a1.859,1.859,0,0,0,1.85,1.859h111.8a1.868,1.868,0,0,0,1.859-1.859V687.949a1.868,1.868,0,0,1,1.859-1.859h47.226a1.859,1.859,0,0,1,1.85,1.859v68.143a1.859,1.859,0,0,0,1.842,1.859H658.239a1.868,1.868,0,0,0,1.85-1.859V687.949a1.859,1.859,0,0,1,1.841-1.859h47.226a1.859,1.859,0,0,1,1.859,1.859v68.143a1.868,1.868,0,0,0,1.859,1.859h111.8a1.868,1.868,0,0,0,1.85-1.859V249.607A1.859,1.859,0,0,0,824.677,247.748ZM364.5,662.459a1.85,1.85,0,0,1-1.841,1.841H293.6a1.841,1.841,0,0,1-1.85-1.841V638.872a1.85,1.85,0,0,1,1.85-1.859h69.06a1.859,1.859,0,0,1,1.841,1.859Zm0-60.945a1.85,1.85,0,0,1-1.841,1.85H293.6a1.85,1.85,0,0,1-1.85-1.859v-23.56a1.85,1.85,0,0,1,1.85-1.859h69.06a1.85,1.85,0,0,1,1.842,1.859Zm0-60.927a1.85,1.85,0,0,1-1.841,1.85H293.6a1.85,1.85,0,0,1-1.85-1.85V517.018a1.85,1.85,0,0,1,1.85-1.859h69.06a1.859,1.859,0,0,1,1.841,1.859Zm0-60.945a1.842,1.842,0,0,1-1.841,1.85H293.6a1.841,1.841,0,0,1-1.85-1.85V456.064a1.841,1.841,0,0,1,1.85-1.85h69.06a1.841,1.841,0,0,1,1.842,1.85Zm0-60.936a1.859,1.859,0,0,1-1.842,1.859H293.6a1.85,1.85,0,0,1-1.85-1.859V395.119a1.841,1.841,0,0,1,1.85-1.841h69.06a1.85,1.85,0,0,1,1.842,1.841Zm0-60.927a1.85,1.85,0,0,1-1.841,1.841H293.6a1.841,1.841,0,0,1-1.85-1.841V334.192a1.859,1.859,0,0,1,1.85-1.859h69.06a1.859,1.859,0,0,1,1.841,1.859Zm0-60.945a1.85,1.85,0,0,1-1.841,1.859H293.6a1.85,1.85,0,0,1-1.85-1.859V273.265a1.85,1.85,0,0,1,1.85-1.859h69.06a1.85,1.85,0,0,1,1.842,1.859ZM528.208,662.485a1.842,1.842,0,0,1-1.85,1.841H457.307a1.859,1.859,0,0,1-1.859-1.842V638.872a1.868,1.868,0,0,1,1.859-1.859h69.051a1.85,1.85,0,0,1,1.85,1.859Zm0-60.945a1.85,1.85,0,0,1-1.85,1.859H457.307a1.859,1.859,0,0,1-1.859-1.859v-23.6a1.859,1.859,0,0,1,1.859-1.859h69.051a1.85,1.85,0,0,1,1.85,1.859Zm0-60.927a1.85,1.85,0,0,1-1.85,1.85H457.307a1.859,1.859,0,0,1-1.859-1.85v-23.6a1.868,1.868,0,0,1,1.859-1.859h69.051a1.85,1.85,0,0,1,1.85,1.859Zm0-60.945a1.842,1.842,0,0,1-1.85,1.85H457.307a1.85,1.85,0,0,1-1.859-1.85v-23.6a1.85,1.85,0,0,1,1.859-1.85h69.051a1.841,1.841,0,0,1,1.85,1.85Zm0-60.936a1.85,1.85,0,0,1-1.85,1.859H457.307a1.868,1.868,0,0,1-1.859-1.859V395.119a1.859,1.859,0,0,1,1.859-1.841h69.051a1.842,1.842,0,0,1,1.85,1.841Zm0-60.927a1.842,1.842,0,0,1-1.85,1.841H457.307a1.859,1.859,0,0,1-1.859-1.842V334.192a1.868,1.868,0,0,1,1.859-1.859h69.051a1.859,1.859,0,0,1,1.85,1.859Zm0-60.945a1.85,1.85,0,0,1-1.85,1.859H457.307a1.859,1.859,0,0,1-1.859-1.859v-23.6a1.859,1.859,0,0,1,1.859-1.859h69.051a1.85,1.85,0,0,1,1.85,1.859Zm111.9,365.651a1.85,1.85,0,0,1-1.859,1.841H569.17a1.85,1.85,0,0,1-1.85-1.841v-23.64a1.859,1.859,0,0,1,1.85-1.859h69.051a1.859,1.859,0,0,1,1.859,1.859Zm0-60.945a1.85,1.85,0,0,1-1.859,1.859H569.17a1.859,1.859,0,0,1-1.85-1.859V577.945a1.859,1.859,0,0,1,1.85-1.859h69.051a1.85,1.85,0,0,1,1.859,1.859Zm0-60.927a1.859,1.859,0,0,1-1.859,1.85H569.17a1.859,1.859,0,0,1-1.85-1.85V517.018a1.859,1.859,0,0,1,1.85-1.859h69.051a1.859,1.859,0,0,1,1.859,1.859Zm0-60.945a1.85,1.85,0,0,1-1.859,1.85H569.17a1.85,1.85,0,0,1-1.85-1.85V456.064a1.85,1.85,0,0,1,1.85-1.85h69.051a1.85,1.85,0,0,1,1.859,1.85Zm0-60.936a1.859,1.859,0,0,1-1.859,1.859H569.17a1.859,1.859,0,0,1-1.85-1.859v-23.64a1.85,1.85,0,0,1,1.85-1.841h69.051a1.85,1.85,0,0,1,1.859,1.841Zm0-60.927a1.85,1.85,0,0,1-1.859,1.841H569.17a1.85,1.85,0,0,1-1.85-1.841v-23.64a1.868,1.868,0,0,1,1.85-1.859h69.051a1.868,1.868,0,0,1,1.859,1.859Zm0-60.945a1.85,1.85,0,0,1-1.859,1.859H569.17a1.859,1.859,0,0,1-1.85-1.859V273.265a1.859,1.859,0,0,1,1.85-1.859h69.051a1.85,1.85,0,0,1,1.859,1.859ZM803.821,662.459a1.859,1.859,0,0,1-1.859,1.841H732.885a1.85,1.85,0,0,1-1.859-1.841V638.872a1.859,1.859,0,0,1,1.859-1.859h69.051a1.868,1.868,0,0,1,1.885,1.859Zm0-60.945a1.859,1.859,0,0,1-1.859,1.859H732.885a1.85,1.85,0,0,1-1.859-1.859V577.945a1.85,1.85,0,0,1,1.859-1.859h69.051a1.859,1.859,0,0,1,1.859,1.859Zm0-60.927a1.859,1.859,0,0,1-1.859,1.85H732.885a1.859,1.859,0,0,1-1.859-1.85V517.018a1.859,1.859,0,0,1,1.859-1.859h69.051a1.868,1.868,0,0,1,1.885,1.859Zm0-60.945a1.85,1.85,0,0,1-1.859,1.85H732.885a1.85,1.85,0,0,1-1.859-1.85V456.064a1.85,1.85,0,0,1,1.859-1.85h69.051a1.85,1.85,0,0,1,1.859,1.85Zm0-60.936a1.868,1.868,0,0,1-1.859,1.859H732.885a1.859,1.859,0,0,1-1.859-1.859V395.119a1.85,1.85,0,0,1,1.859-1.841h69.051a1.859,1.859,0,0,1,1.859,1.842Zm0-60.927a1.859,1.859,0,0,1-1.859,1.841H732.885a1.85,1.85,0,0,1-1.859-1.841V334.192a1.868,1.868,0,0,1,1.859-1.859h69.051a1.868,1.868,0,0,1,1.885,1.859Zm0-60.945a1.859,1.859,0,0,1-1.859,1.859H732.885a1.85,1.85,0,0,1-1.859-1.859V273.265a1.85,1.85,0,0,1,1.859-1.859h69.051a1.859,1.859,0,0,1,1.859,1.859Z" transform="translate(436.028 191.92)" fill="#f2f2f2"/>
    <path id="Path_168" data-name="Path 168" d="M277.984,70.754c-1.7-2.316-5.224.2-3.633,2.6.415.627.873,1.232,1.3,1.817,5.245,7.041,7.963,15.68,10.308,24.185.57,2.112,1.126,4.309.472,6.337a39.851,39.851,0,0,0-1.084-16.644,102.962,102.962,0,0,0-5.893-15.687A14.262,14.262,0,0,0,277.984,70.754Z" transform="translate(535.77 347.848)" fill="#3f2986" opacity="0.5"/>
    <path id="Path_169" data-name="Path 169" d="M230.118,92.3c-3.52-.106-3.985,5.259-.465,5.541.922.077,1.859.1,2.746.12,10.836.3,21.087,4.224,30.937,8.449,2.415,1.035,4.928,2.2,6.337,4.415a46.582,46.582,0,0,0-16.5-11.688,121.612,121.612,0,0,0-19.46-6.287A17.017,17.017,0,0,0,230.118,92.3Z" transform="translate(549.594 341.2)" fill="#3f2986"/>
    <path id="Path_170" data-name="Path 170" d="M232.112,111c-2.239.084-1.732,3.26.521,3.281.584,0,1.176,0,1.732-.049,6.837-.275,13.842,1.612,20.629,3.689a10.537,10.537,0,0,1,4.64,2.33,37.188,37.188,0,0,0-12.054-6.189,93.38,93.38,0,0,0-13.124-2.887A11.88,11.88,0,0,0,232.112,111Z" transform="translate(548.578 335.667)" fill="#3f2986" opacity="0.2"/>
    <path id="Path_171" data-name="Path 171" d="M297.286,182.738c.634,2.147,3.591.866,3.049-1.317-.141-.57-.317-1.134-.479-1.669-1.964-6.555-1.873-13.807-1.549-20.9a10.622,10.622,0,0,1,1.112-5.076,37.111,37.111,0,0,0-3,13.215,91.744,91.744,0,0,0,.458,13.427,11.835,11.835,0,0,0,.408,2.316Z" transform="translate(529.141 323.006)" fill="#3f2986" opacity="0.5"/>
    <path id="Path_172" data-name="Path 172" d="M238.054,66.9c-1.345-.232-1.443,1.725-.106,2.028.352.077.7.134,1.042.19,4.119.7,8.062,2.718,11.857,4.823a6.406,6.406,0,0,1,2.471,1.985A22.684,22.684,0,0,0,246.9,70.7a55.524,55.524,0,0,0-7.47-3.387,7.083,7.083,0,0,0-1.38-.408Z" transform="translate(546.706 348.722)" fill="#3f2986" opacity="0.2"/>
    <path id="Path_173" data-name="Path 173" d="M208.357,137.86c-3.415,1.76-.528,6.583,2.978,4.985.915-.422,1.809-.894,2.668-1.338,10.427-5.407,22.53-7.4,34.5-8.935,2.922-.373,6.041-.7,8.745.451a59.17,59.17,0,0,0-22.819-1.366,150.314,150.314,0,0,0-22.284,4.788,20.2,20.2,0,0,0-3.788,1.415Z" transform="translate(555.633 329.702)" fill="#3f2986"/>
    <path id="Path_174" data-name="Path 174" d="M222.521,159.88c-2.45,2.288,1.408,4.992,3.95,2.816.7-.57,1.317-1.176,1.929-1.753,7.477-7.041,17.355-12.011,27.191-16.616,2.415-1.134,12.356-2.281,15-2.218-6.928.62-21.08,2.816-27.374,5.633a151.586,151.586,0,0,0-17.855,10.026A18.75,18.75,0,0,0,222.521,159.88Z" transform="translate(551.221 326.461)" fill="#3f2986" opacity="0.5"/>
    <path id="Path_175" data-name="Path 175" d="M247.68,192.267c-.7,3.274,3.964,3.323,4.837.049.225-.852.408-1.718.584-2.542,2.161-10.019,7.449-19.749,12.927-29.127,1.345-2.3,8.864-8.9,11.082-10.357-5.351,4.45-15.764,14.279-19.313,20.207a152.079,152.079,0,0,0-9,18.4,19.329,19.329,0,0,0-1.12,3.373Z" transform="translate(543.565 324.039)" fill="#3f2986"/>
    <path id="Path_176" data-name="Path 176" d="M295.545,45.861c-1.676-3.408-6.449-.605-4.928,2.887.394.915.838,1.809,1.26,2.661,5.147,10.413,6.914,22.446,8.238,34.281.324,2.9.605,6-.577,8.667a59.364,59.364,0,0,0,1.7-22.6,148.987,148.987,0,0,0-4.358-22.15,19.94,19.94,0,0,0-1.331-3.746Z" transform="translate(530.925 355.4)" fill="#3f2986"/>
    <path id="Path_177" data-name="Path 177" d="M258.237,53.444a.634.634,0,0,0,.289.092c.19,0,.317-.19.394-.359.415-.908.176-2.112.824-2.816a9.913,9.913,0,0,1,1.556,2.563l2.45-.7a3.619,3.619,0,0,1-.465,2.816,3.662,3.662,0,0,1,1.155.789,1.26,1.26,0,0,1,.3,1.3,6.217,6.217,0,0,1-1.732.169,11.516,11.516,0,0,1-.183,3.225.584.584,0,0,1-.211.408c-.176.113-.415,0-.6-.1A5.632,5.632,0,0,1,260,58.71l-.915,2.176a.986.986,0,0,1-.4.549.655.655,0,0,1-.767-.268,1.837,1.837,0,0,1-.268-.824l-.345-2.07a.492.492,0,0,0-.113-.3.528.528,0,0,0-.359-.106h-2.6c-.148-.465.31-.887.753-1.084s.965-.338,1.19-.767c.451-.88-.7-2.112-.218-2.851C256.54,52.219,257.484,53.071,258.237,53.444Z" transform="translate(541.611 353.611)" fill="#3f2986"/>
    <path id="Path_178" data-name="Path 178" d="M323.408,70.754c1.7-2.316,5.224.2,3.633,2.6-.415.627-.873,1.232-1.3,1.817-5.245,7.041-7.97,15.68-10.308,24.185-.577,2.112-1.134,4.309-.479,6.337a39.855,39.855,0,0,1,1.091-16.644,103.362,103.362,0,0,1,5.893-15.722A14.264,14.264,0,0,1,323.408,70.754Z" transform="translate(523.768 347.848)" fill="#3f2986" opacity="0.5"/>
    <path id="Path_179" data-name="Path 179" d="M358.868,92.3c3.52-.106,3.992,5.259.465,5.541-.922.077-1.852.1-2.739.12-10.843.3-21.087,4.224-30.937,8.449-2.415,1.035-4.928,2.2-6.337,4.415a46.457,46.457,0,0,1,16.5-11.688,122.417,122.417,0,0,1,19.432-6.28A17.017,17.017,0,0,1,358.868,92.3Z" transform="translate(522.343 341.2)" fill="#3f2986"/>
    <path id="Path_180" data-name="Path 180" d="M362.542,111c2.232.084,1.732,3.26-.521,3.281-.584,0-1.176,0-1.739-.049-6.837-.275-13.835,1.612-20.622,3.689a10.537,10.537,0,0,0-4.64,2.33,37.189,37.189,0,0,1,12.054-6.189,93.159,93.159,0,0,1,13.124-2.887A11.879,11.879,0,0,1,362.542,111Z" transform="translate(517.697 335.667)" fill="#3f2986" opacity="0.5"/>
    <path id="Path_181" data-name="Path 181" d="M361.907,66.9c1.352-.232,1.45,1.725.113,2.028-.352.077-.7.134-1.049.19-4.119.7-8.055,2.718-11.849,4.823a6.407,6.407,0,0,0-2.471,1.985,22.594,22.594,0,0,1,6.414-5.231,55.449,55.449,0,0,1,7.463-3.387A7.38,7.38,0,0,1,361.907,66.9Z" transform="translate(514.255 348.722)" fill="#3f2986" opacity="0.2"/>
    <path id="Path_182" data-name="Path 182" d="M317.553,193.288c-.3,1.338-2.154.7-1.908-.7.063-.359.141-.7.218-1.042.943-4.069.6-8.484.127-12.793a6.477,6.477,0,0,0-.88-3.049,22.671,22.671,0,0,1,2.352,7.956,56.1,56.1,0,0,1,.246,8.2A7.4,7.4,0,0,1,317.553,193.288Z" transform="translate(523.589 316.519)" fill="#3f2986" opacity="0.2"/>
    <path id="Path_183" data-name="Path 183" d="M358.485,179.268c1.049,1.781-1.528,1.655-2.661-.127-.3-.465-.57-.929-.838-1.408-3.2-5.442-8.069-10.829-12.969-16.032a17.982,17.982,0,0,0-4.027-3.471,63.449,63.449,0,0,1,10.561,9.012c3.147,3.3,5.928,6.724,8.653,10.153a16.52,16.52,0,0,1,1.281,1.873Z" transform="translate(516.818 321.689)" fill="#3f2986" opacity="0.5"/>
    <path id="Path_184" data-name="Path 184" d="M234.217,179.268c-1.049,1.781,1.535,1.655,2.668-.127.3-.465.57-.929.831-1.408,3.2-5.442,8.069-10.829,12.976-16.032a17.945,17.945,0,0,1,4.02-3.471,64.029,64.029,0,0,0-10.561,9.012c-3.147,3.3-5.928,6.724-8.646,10.153A16.589,16.589,0,0,0,234.217,179.268Z" transform="translate(547.6 321.689)" fill="#3f2986" opacity="0.2"/>
    <path id="Path_185" data-name="Path 185" d="M282.788,193.288c.3,1.338,2.147.7,1.908-.7-.063-.359-.148-.7-.225-1.042-.936-4.069-.6-8.484-.12-12.793a6.547,6.547,0,0,1,.873-3.049,22.656,22.656,0,0,0-2.351,7.956,56.092,56.092,0,0,0-.254,8.2A7.4,7.4,0,0,0,282.788,193.288Z" transform="translate(533.219 316.519)" fill="#3f2986" opacity="0.2"/>
    <path id="Path_186" data-name="Path 186" d="M346.584,85.9c1.345-.239,1.443,1.725.106,2.021-.352.077-.7.141-1.042.2-4.119.7-8.062,2.718-11.856,4.816a6.534,6.534,0,0,0-2.471,1.985,22.665,22.665,0,0,1,6.414-5.224A56.456,56.456,0,0,1,345.2,86.3,7.039,7.039,0,0,1,346.584,85.9Z" transform="translate(518.792 343.099)" fill="#3f2986" opacity="0.2"/>
    <path id="Path_187" data-name="Path 187" d="M330.646,48.542c1.162-.7,1.985,1.063.859,1.838-.3.2-.606.394-.9.57-3.556,2.19-6.456,5.534-9.188,8.9a6.549,6.549,0,0,0-1.556,2.767,22.755,22.755,0,0,1,4-7.245,55.738,55.738,0,0,1,5.633-5.935,7.667,7.667,0,0,1,1.155-.894Z" transform="translate(522.183 354.197)" fill="#3f2986" opacity="0.2"/>
    <path id="Path_188" data-name="Path 188" d="M377.281,137.86c3.415,1.76.528,6.583-2.978,4.985-.915-.422-1.816-.894-2.668-1.338-10.434-5.407-22.53-7.4-34.5-8.935-2.922-.373-6.041-.7-8.745.451a59.162,59.162,0,0,1,22.819-1.366,150.314,150.314,0,0,1,22.284,4.788A20.415,20.415,0,0,1,377.281,137.86Z" transform="translate(519.659 329.702)" fill="#3f2986"/>
    <path id="Path_189" data-name="Path 189" d="M363.782,159.868c2.45,2.288-1.408,4.992-3.95,2.816-.7-.57-1.317-1.176-1.929-1.753-7.5-7.048-17.355-12.04-27.212-16.644-2.415-1.134-12.356-2.281-15.011-2.218,6.935.62,21.087,2.816,27.381,5.633a151.6,151.6,0,0,1,17.855,10.026A18.75,18.75,0,0,1,363.782,159.868Z" transform="translate(523.42 326.472)" fill="#3f2986" opacity="0.5"/>
    <path id="Path_190" data-name="Path 190" d="M332.864,196.168c.3,3.337-4.351,2.816-4.8-.556-.12-.873-.19-1.753-.268-2.591-.887-10.216-4.929-20.531-9.153-30.521-1.049-2.45-7.681-9.941-9.7-11.659,4.753,5.083,13.849,16.137,16.63,22.467a151.958,151.958,0,0,1,6.625,19.376A19.089,19.089,0,0,1,332.864,196.168Z" transform="translate(525.415 323.876)" fill="#3f2986"/>
    <path id="Path_191" data-name="Path 191" d="M344.131,53.444a.606.606,0,0,1-.289.092c-.183,0-.31-.19-.387-.359-.422-.908-.183-2.112-.824-2.816a9.912,9.912,0,0,0-1.556,2.563l-2.457-.7a3.647,3.647,0,0,0,.465,2.816,3.739,3.739,0,0,0-1.155.789,1.274,1.274,0,0,0-.3,1.3,6.218,6.218,0,0,0,1.732.169,11.264,11.264,0,0,0,.183,3.225.584.584,0,0,0,.211.408c.176.113.415,0,.6-.1a5.766,5.766,0,0,0,2.014-2.112l.915,2.176a.922.922,0,0,0,.4.549.655.655,0,0,0,.767-.268,1.93,1.93,0,0,0,.268-.824l.345-2.07a.493.493,0,0,1,.113-.3.528.528,0,0,1,.359-.106h2.6c.148-.465-.31-.887-.753-1.084s-.972-.338-1.19-.767c-.451-.88.7-2.112.218-2.851C345.834,52.219,344.912,53.071,344.131,53.444Z" transform="translate(516.944 353.611)" fill="#3f2986"/>
    <path id="Path_192" data-name="Path 192" d="M354.639,196.851a.619.619,0,0,1-.289.085c-.19,0-.317-.19-.394-.359-.415-.9-.176-2.077-.817-2.816a9.75,9.75,0,0,0-1.563,2.612l-2.45-.753a3.626,3.626,0,0,0,.465,2.816,3.639,3.639,0,0,0-1.155.782,1.281,1.281,0,0,0-.3,1.3,6.218,6.218,0,0,0,1.732.176,11.461,11.461,0,0,0,.183,3.218.641.641,0,0,0,.211.415c.183.113.415,0,.6-.106a5.584,5.584,0,0,0,2.014-2.112l.915,2.176a.971.971,0,0,0,.408.542.641.641,0,0,0,.76-.261,1.972,1.972,0,0,0,.275-.824l.338-2.077a.493.493,0,0,1,.113-.3.535.535,0,0,1,.366-.1c.859,0,1.725-.035,2.591,0,.148-.458-.31-.887-.753-1.084s-.965-.338-1.19-.767c-.451-.873.7-2.112.218-2.816C356.336,195.6,355.392,196.478,354.639,196.851Z" transform="translate(513.835 311.175)" fill="#3f2986" opacity="0.2"/>
    <path id="Path_193" data-name="Path 193" d="M384.148,100.7a.549.549,0,0,1-.289.084c-.19,0-.317-.183-.394-.352-.415-.908-.176-2.112-.824-2.816a9.95,9.95,0,0,0-1.556,2.619l-2.45-.76a3.626,3.626,0,0,0,.465,2.816,3.758,3.758,0,0,0-1.155.782,1.274,1.274,0,0,0-.3,1.3,6.218,6.218,0,0,0,1.732.169,11.536,11.536,0,0,0,.183,3.225.585.585,0,0,0,.211.408c.176.113.415,0,.6-.1a5.632,5.632,0,0,0,2.014-2.112l.915,2.176a.986.986,0,0,0,.4.549.662.662,0,0,0,.768-.268,1.84,1.84,0,0,0,.268-.824l.345-2.112a.493.493,0,0,1,.113-.289.528.528,0,0,1,.359-.106h2.6c.148-.458-.31-.887-.753-1.077s-.965-.338-1.19-.767c-.451-.88.7-2.112.218-2.816C385.845,99.472,384.915,100.345,384.148,100.7Z" transform="translate(505.103 339.625)" fill="#3f2986"/>
    <path id="Path_194" data-name="Path 194" d="M265.078,210.7a.83.83,0,0,1-.4.12c-.261,0-.437-.261-.549-.493-.577-1.267-.246-2.908-1.141-3.971a13.552,13.552,0,0,0-2.169,3.647l-3.436-1.084a5.1,5.1,0,0,0,.648,3.915,5.2,5.2,0,0,0-1.612,1.1,1.781,1.781,0,0,0-.415,1.8,8.726,8.726,0,0,0,2.415.246,15.981,15.981,0,0,0,.253,4.485.81.81,0,0,0,.3.57c.246.162.577,0,.831-.134a7.941,7.941,0,0,0,2.816-2.985l1.274,3.035a1.408,1.408,0,0,0,.563.76.9.9,0,0,0,1.063-.366,2.641,2.641,0,0,0,.38-1.155l.472-2.887a.754.754,0,0,1,.162-.408.7.7,0,0,1,.507-.148c1.2,0,2.408-.042,3.612-.035.211-.641-.429-1.232-1.049-1.507s-1.345-.472-1.655-1.07c-.634-1.218.993-2.915.3-3.971C267.45,208.965,266.134,210.183,265.078,210.7Z" transform="translate(541.108 307.446)" fill="#3f2986"/>
    <path id="Path_195" data-name="Path 195" d="M216,103.064a.837.837,0,0,1-.408.12c-.253,0-.436-.26-.542-.493-.584-1.267-.246-2.908-1.141-3.971a13.573,13.573,0,0,0-2.176,3.647L208.32,101.3a5.062,5.062,0,0,0,.641,3.915,5.168,5.168,0,0,0-1.605,1.1,1.781,1.781,0,0,0-.422,1.8,8.724,8.724,0,0,0,2.415.246,15.729,15.729,0,0,0,.26,4.485.634.634,0,0,0,1.126.437,7.942,7.942,0,0,0,2.816-2.985l1.267,3.035a1.338,1.338,0,0,0,.57.76.908.908,0,0,0,1.063-.366,2.6,2.6,0,0,0,.373-1.155l.479-2.887a.533.533,0,0,1,.662-.549c1.2,0,2.408-.049,3.619-.042.2-.641-.437-1.232-1.049-1.507s-1.352-.472-1.662-1.07c-.627-1.218,1-2.915.31-3.971C218.367,101.325,217.05,102.543,216,103.064Z" transform="translate(555.628 339.3)" fill="#3f2986"/>
    <path id="Path_196" data-name="Path 196" d="M366.746,170.579a.409.409,0,0,1-.211.063c-.141,0-.232-.141-.3-.26-.31-.7-.127-1.542-.605-2.112a7.385,7.385,0,0,0-1.155,1.936l-1.816-.563a2.746,2.746,0,0,0,.345,2.112,2.64,2.64,0,0,0-.852.577.943.943,0,0,0-.225.958,4.64,4.64,0,0,0,1.281.134,8.447,8.447,0,0,0,.141,2.38.422.422,0,0,0,.155.3.437.437,0,0,0,.444-.07,4.3,4.3,0,0,0,1.493-1.584l.7,1.612a.7.7,0,0,0,.3.4.486.486,0,0,0,.57-.19,1.408,1.408,0,0,0,.2-.613l.253-1.535a.394.394,0,0,1,.085-.218.345.345,0,0,1,.268-.077h1.922c.106-.338-.232-.655-.563-.8a1.623,1.623,0,0,1-.88-.57c-.331-.648.535-1.549.169-2.112S367.3,170.3,366.746,170.579Z" transform="translate(509.747 318.718)" fill="#3f2986" opacity="0.2"/>
    <path id="Path_197" data-name="Path 197" d="M300.066,209.076a.563.563,0,0,1-.211.063.394.394,0,0,1-.289-.268c-.31-.669-.134-1.542-.612-2.112A7.271,7.271,0,0,0,297.8,208.7l-1.809-.563a2.7,2.7,0,0,0,.338,2.077,2.958,2.958,0,0,0-.852.584.944.944,0,0,0-.225.958,4.379,4.379,0,0,0,1.281.127,8.45,8.45,0,0,0,.141,2.387.437.437,0,0,0,.155.3c.134.084.31,0,.444-.07a4.3,4.3,0,0,0,1.493-1.584l.7,1.612a.7.7,0,0,0,.3.4.493.493,0,0,0,.57-.2,1.408,1.408,0,0,0,.2-.613l.253-1.535a.374.374,0,0,1,.085-.211.366.366,0,0,1,.268-.077h1.922c.106-.338-.232-.655-.556-.8s-.7-.246-.88-.57c-.338-.648.528-1.549.162-2.112S300.629,208.795,300.066,209.076Z" transform="translate(529.48 307.328)" fill="#3f2986" opacity="0.2"/>
    <path id="Path_198" data-name="Path 198" d="M235.538,74.336a.528.528,0,0,1-.211.063.394.394,0,0,1-.289-.268c-.31-.7-.134-1.542-.605-2.112a6.92,6.92,0,0,0-1.155,1.936l-1.816-.563a2.668,2.668,0,0,0,.345,2.112,2.9,2.9,0,0,0-.859.584.936.936,0,0,0-.218.958,4.337,4.337,0,0,0,1.281.127,8.45,8.45,0,0,0,.134,2.387.437.437,0,0,0,.155.3c.134.085.31,0,.444-.07a4.224,4.224,0,0,0,1.493-1.584l.7,1.612a.7.7,0,0,0,.3.4.486.486,0,0,0,.563-.2,1.408,1.408,0,0,0,.2-.613l.253-1.535a.359.359,0,0,1,.085-.211.366.366,0,0,1,.268-.077h1.922c.113-.338-.232-.655-.556-.8s-.7-.246-.88-.57c-.338-.648.528-1.549.162-2.112S236.1,74.055,235.538,74.336Z" transform="translate(548.575 347.201)" fill="#3f2986" opacity="0.5"/>
    <path id="Path_199" data-name="Path 199" d="M269.886,150.259a.415.415,0,0,1-.218.063c-.134,0-.232-.134-.289-.261-.31-.669-.134-1.542-.605-2.112a7.1,7.1,0,0,0-1.155,1.936l-1.817-.563a2.725,2.725,0,0,0,.345,2.112,2.816,2.816,0,0,0-.852.584.936.936,0,0,0-.225.958,4.358,4.358,0,0,0,1.281.127,8.446,8.446,0,0,0,.134,2.387.472.472,0,0,0,.155.3c.134.084.31,0,.444-.077a4.169,4.169,0,0,0,1.493-1.577l.7,1.612a.761.761,0,0,0,.3.4.479.479,0,0,0,.563-.2,1.407,1.407,0,0,0,.2-.613l.253-1.535a.317.317,0,0,1,.084-.211.345.345,0,0,1,.268-.077h1.915c.113-.338-.225-.655-.556-.8s-.7-.253-.88-.57c-.331-.648.535-1.549.162-2.112S270.442,149.985,269.886,150.259Z" transform="translate(538.412 324.731)" fill="#3f2986" opacity="0.5"/>
    <path id="Path_200" data-name="Path 200" d="M244.956,120.659a.387.387,0,0,1-.211.063c-.141,0-.232-.134-.289-.261-.31-.669-.134-1.542-.613-2.112a7.275,7.275,0,0,0-1.155,1.936l-1.809-.563a2.7,2.7,0,0,0,.338,2.112,2.957,2.957,0,0,0-.852.584.937.937,0,0,0-.225.958,4.379,4.379,0,0,0,1.281.127,8.448,8.448,0,0,0,.141,2.387.436.436,0,0,0,.155.3c.134.084.31,0,.444-.077a4.168,4.168,0,0,0,1.493-1.577l.7,1.612a.7.7,0,0,0,.3.4.493.493,0,0,0,.57-.2,1.407,1.407,0,0,0,.2-.613l.254-1.535a.359.359,0,0,1,.084-.211.366.366,0,0,1,.268-.077h1.922c.106-.338-.232-.655-.556-.8s-.7-.253-.88-.57c-.338-.648.528-1.549.162-2.112S245.519,120.385,244.956,120.659Z" transform="translate(545.789 333.491)" fill="#3f2986" opacity="0.5"/>
    <path id="Path_201" data-name="Path 201" d="M352.016,127.629a.409.409,0,0,1-.211.063c-.141,0-.232-.134-.3-.26-.3-.669-.127-1.542-.605-2.112a7.271,7.271,0,0,0-1.155,1.936l-1.81-.563a2.7,2.7,0,0,0,.338,2.077,2.663,2.663,0,0,0-.852.584.937.937,0,0,0-.225.958,4.634,4.634,0,0,0,1.281.127,8.451,8.451,0,0,0,.141,2.387.436.436,0,0,0,.155.3c.134.084.31,0,.444-.077a4.282,4.282,0,0,0,1.493-1.577l.7,1.605a.7.7,0,0,0,.3.408.493.493,0,0,0,.57-.2,1.407,1.407,0,0,0,.2-.613l.253-1.535a.394.394,0,0,1,.085-.218.373.373,0,0,1,.268-.07h1.922c.106-.338-.232-.655-.556-.8s-.7-.253-.88-.57c-.338-.648.528-1.549.162-2.112S352.579,127.355,352.016,127.629Z" transform="translate(514.107 331.428)" fill="#3f2986" opacity="0.5"/>
    <path id="Path_202" data-name="Path 202" d="M300.066,121.809a.387.387,0,0,1-.211.063c-.141,0-.232-.141-.289-.26-.31-.7-.134-1.542-.613-2.112a7.5,7.5,0,0,0-1.155,1.936l-1.81-.563a2.711,2.711,0,0,0,.338,2.112,2.816,2.816,0,0,0-.852.577.951.951,0,0,0-.225.965,4.93,4.93,0,0,0,1.281.127,8.443,8.443,0,0,0,.141,2.38.408.408,0,0,0,.155.3c.134.092.31,0,.444-.07a4.224,4.224,0,0,0,1.493-1.584l.7,1.612a.7.7,0,0,0,.3.4.479.479,0,0,0,.57-.19,1.408,1.408,0,0,0,.2-.613l.253-1.535a.394.394,0,0,1,.084-.218.444.444,0,0,1,.268-.077h1.922c.106-.338-.232-.655-.556-.8a1.649,1.649,0,0,1-.88-.57c-.338-.648.528-1.549.162-2.112S300.629,121.535,300.066,121.809Z" transform="translate(529.48 333.15)" fill="#3f2986" opacity="0.2"/>
    <path id="Path_203" data-name="Path 203" d="M283.766,128.9a.408.408,0,0,1-.211.063c-.141,0-.232-.134-.3-.261-.31-.7-.127-1.542-.605-2.112a7.5,7.5,0,0,0-1.155,1.936l-1.817-.556a2.725,2.725,0,0,0,.345,2.077,2.759,2.759,0,0,0-.852.577.95.95,0,0,0-.225.965,4.927,4.927,0,0,0,1.281.127,8.5,8.5,0,0,0,.141,2.387.436.436,0,0,0,.155.3c.134.084.31,0,.443-.077a4.224,4.224,0,0,0,1.493-1.584l.7,1.612a.7.7,0,0,0,.3.408.493.493,0,0,0,.57-.2,1.41,1.41,0,0,0,.2-.613l.253-1.535a.394.394,0,0,1,.084-.218.415.415,0,0,1,.268-.077h1.922c.106-.345-.232-.662-.556-.8a1.649,1.649,0,0,1-.88-.57c-.338-.648.528-1.549.162-2.112S284.329,128.625,283.766,128.9Z" transform="translate(534.304 331.052)" fill="#3f2986" opacity="0.3"/>
    <path id="Path_204" data-name="Path 204" d="M268.576,86.029a.416.416,0,0,1-.218.063c-.134,0-.232-.134-.289-.261-.31-.7-.134-1.542-.605-2.112a7.168,7.168,0,0,0-1.155,1.929l-1.817-.556a2.668,2.668,0,0,0,.345,2.112,2.879,2.879,0,0,0-.859.577.965.965,0,0,0-.218.965,4.611,4.611,0,0,0,1.281.127,8.5,8.5,0,0,0,.134,2.387.436.436,0,0,0,.155.3c.134.084.31,0,.444-.077a4.139,4.139,0,0,0,1.493-1.584l.7,1.612a.753.753,0,0,0,.3.408.479.479,0,0,0,.57-.26,1.409,1.409,0,0,0,.2-.613l.246-1.535a.394.394,0,0,1,.085-.218.443.443,0,0,1,.268-.077h1.922c.113-.345-.225-.662-.556-.8a1.623,1.623,0,0,1-.88-.57c-.331-.648.528-1.549.162-2.112S269.132,85.72,268.576,86.029Z" transform="translate(538.799 343.739)" fill="#3f2986" opacity="0.2"/>
    <path id="Path_205" data-name="Path 205" d="M298.506,142.026a.486.486,0,0,1-.218.063c-.134,0-.232-.141-.289-.268-.31-.669-.134-1.535-.605-2.112a7.2,7.2,0,0,0-1.155,1.936l-1.817-.563a2.683,2.683,0,0,0,.345,2.112,2.753,2.753,0,0,0-.859.577.958.958,0,0,0-.218.958,4.612,4.612,0,0,0,1.281.134,8.449,8.449,0,0,0,.134,2.38.471.471,0,0,0,.155.3.436.436,0,0,0,.444-.07,4.224,4.224,0,0,0,1.493-1.584l.7,1.612a.7.7,0,0,0,.3.4.486.486,0,0,0,.563-.19,1.408,1.408,0,0,0,.2-.613l.253-1.535a.289.289,0,0,1,.352-.3h1.915c.113-.338-.225-.655-.556-.8a1.623,1.623,0,0,1-.88-.57c-.331-.648.528-1.549.162-2.112S299.062,141.717,298.506,142.026Z" transform="translate(529.942 327.17)" fill="#3f2986" opacity="0.3"/>
    <g id="Group_305" data-name="Group 305" transform="translate(1145.742 574.515)" opacity="0.1">
      <ellipse id="Ellipse_20" data-name="Ellipse 20" cx="12.666" cy="16.581" rx="12.666" ry="16.581" transform="translate(48.294 341.934)" fill="#3f3d56"/>
      <path id="Path_206" data-name="Path 206" d="M842.459,689.77a19.933,19.933,0,0,0,2.647-10.132c0-9.153-5.675-16.588-12.673-16.588s-12.673,7.428-12.673,16.588a20,20,0,0,0,2.668,10.132,20.728,20.728,0,0,0,0,20.27,20.713,20.713,0,0,0,0,20.263,20.047,20.047,0,0,0-2.647,10.139c0,9.153,5.675,16.581,12.673,16.581s12.673-7.421,12.673-16.581a19.975,19.975,0,0,0-2.668-10.118,20.714,20.714,0,0,0,0-20.263A20.728,20.728,0,0,0,842.459,689.77Z" transform="translate(-771.494 -402.218)" fill="#3f3d56"/>
      <ellipse id="Ellipse_21" data-name="Ellipse 21" cx="12.666" cy="16.581" rx="12.666" ry="16.581" transform="translate(48.294 240.59)" fill="#3f3d56"/>
      <ellipse id="Ellipse_22" data-name="Ellipse 22" cx="12.666" cy="16.581" rx="12.666" ry="16.581" transform="translate(48.294 220.327)" fill="#3f3d56"/>
      <path id="Path_207" data-name="Path 207" d="M859.587,390.792a59.974,59.974,0,0,0,4.717-6.949l-33.288-5.464,36,.267a60.8,60.8,0,0,0,1.162-48.081l-48.3,25.058,44.539-32.746A60.684,60.684,0,1,0,764.2,390.792a60.906,60.906,0,0,0-6.921,11.061L800.487,424.3,754.42,408.809a60.705,60.705,0,0,0,9.78,56.98,60.677,60.677,0,1,0,95.387,0,60.684,60.684,0,0,0,0-75.026Z" transform="translate(-751.208 -292.586)" fill="#3f2986"/>
      <path id="Path_208" data-name="Path 208" d="M751.22,484.975A60.416,60.416,0,0,0,764.2,522.487a60.677,60.677,0,1,0,95.387,0C867.722,512.187,751.22,478.166,751.22,484.975Z" transform="translate(-751.211 -349.255)" opacity="0.1"/>
    </g>
    <g id="Group_306" data-name="Group 306" transform="translate(712.184 574.515)" opacity="0.1">
      <ellipse id="Ellipse_23" data-name="Ellipse 23" cx="12.666" cy="16.581" rx="12.666" ry="16.581" transform="translate(47.737 341.934)" fill="#3f3d56"/>
      <path id="Path_209" data-name="Path 209" d="M225.909,689.77a20,20,0,0,0,2.647-10.132c0-9.153-5.675-16.588-12.673-16.588s-12.673,7.428-12.673,16.588a19.932,19.932,0,0,0,2.668,10.132,20.728,20.728,0,0,0,0,20.27,20.714,20.714,0,0,0,0,20.263,19.975,19.975,0,0,0-2.647,10.139c0,9.153,5.675,16.581,12.673,16.581s12.673-7.421,12.673-16.581A20.044,20.044,0,0,0,225.93,730.3a20.714,20.714,0,0,0,0-20.263,20.728,20.728,0,0,0,0-20.27Z" transform="translate(-155.48 -402.218)" fill="#3f3d56"/>
      <ellipse id="Ellipse_24" data-name="Ellipse 24" cx="12.666" cy="16.581" rx="12.666" ry="16.581" transform="translate(47.737 240.59)" fill="#3f3d56"/>
      <ellipse id="Ellipse_25" data-name="Ellipse 25" cx="12.666" cy="16.581" rx="12.666" ry="16.581" transform="translate(47.737 220.327)" fill="#3f3d56"/>
      <path id="Path_210" data-name="Path 210" d="M148.4,390.792a59.958,59.958,0,0,1-4.717-6.949l33.288-5.464-36,.267a60.8,60.8,0,0,1-1.162-48.081l48.3,25.058-44.539-32.746A60.684,60.684,0,1,1,243.79,390.792a60.908,60.908,0,0,1,6.921,11.061L207.5,424.3l46.067-15.489a60.7,60.7,0,0,1-9.78,56.98,60.677,60.677,0,1,1-95.387,0,60.684,60.684,0,0,1,0-75.025Z" transform="translate(-135.419 -292.586)" fill="#3f2986"/>
      <path id="Path_211" data-name="Path 211" d="M256.773,484.975a60.416,60.416,0,0,1-12.983,37.513,60.677,60.677,0,1,1-95.387,0C140.271,512.187,256.773,478.166,256.773,484.975Z" transform="translate(-135.419 -349.255)" opacity="0.1"/>
    </g>
    <path id="Path_291" data-name="Path 291" d="M897.853,700.029a17.378,17.378,0,0,0,2.3-8.829c0-7.977-4.928-14.44-11.033-14.44s-11.033,6.463-11.033,14.44a17.383,17.383,0,0,0,2.3,8.829,18.08,18.08,0,0,0,0,17.658,18.081,18.081,0,0,0,0,17.658,18.081,18.081,0,0,0,0,17.658,17.4,17.4,0,0,0-2.3,8.829c0,7.977,4.928,14.448,11.033,14.448s11.033-6.471,11.033-14.448a17.4,17.4,0,0,0-2.3-8.829,18.08,18.08,0,0,0,0-17.658,18.079,18.079,0,0,0,0-17.658,18.079,18.079,0,0,0,0-17.658Z" transform="translate(356.986 168.24)" fill="#3f3d56"/>
    <ellipse id="Ellipse_29" data-name="Ellipse 29" cx="11.033" cy="14.447" rx="11.033" ry="14.447" transform="translate(1235.075 827.342)" fill="#3f3d56"/>
    <ellipse id="Ellipse_30" data-name="Ellipse 30" cx="11.033" cy="14.447" rx="11.033" ry="14.447" transform="translate(1235.075 809.684)" fill="#3f3d56"/>
    <path id="Path_292" data-name="Path 292" d="M830.329,439.487a52.778,52.778,0,0,1-4.1-6.048l28.993-4.767-31.359.232a52.959,52.959,0,0,1-1.007-41.871L864.92,408.86l-38.8-28.536a52.868,52.868,0,1,1,87.3,59.142,53.118,53.118,0,0,1,6.027,9.639l-37.633,19.6,40.132-13.469a52.919,52.919,0,0,1-8.519,49.644,52.861,52.861,0,1,1-83.08,0,52.89,52.89,0,0,1,0-65.366Z" transform="translate(374.465 263.812)" fill="#3f2986"/>
    <path id="Path_293" data-name="Path 293" d="M924.738,521.592a52.657,52.657,0,0,1-11.307,32.683,52.862,52.862,0,1,1-83.08,0C823.233,545.277,924.738,515.657,924.738,521.592Z" transform="translate(374.463 214.389)" opacity="0.1"/>
    <path id="Path_294" data-name="Path 294" d="M323.592,706.749a18.425,18.425,0,0,0,2.443-9.35c0-8.449-5.231-15.3-11.687-15.3s-11.688,6.851-11.688,15.3a18.425,18.425,0,0,0,2.443,9.35,19.116,19.116,0,0,0,0,18.7,19.116,19.116,0,0,0,0,18.7,19.1,19.1,0,0,0,0,18.693,18.468,18.468,0,0,0-2.443,9.35c0,8.449,5.231,15.3,11.688,15.3s11.688-6.85,11.688-15.3a18.467,18.467,0,0,0-2.443-9.35,19.1,19.1,0,0,0,0-18.693,19.115,19.115,0,0,0,0-18.7,19.116,19.116,0,0,0,0-18.7Z" transform="translate(527.274 166.66)" fill="#3f3d56"/>
    <ellipse id="Ellipse_31" data-name="Ellipse 31" cx="11.688" cy="15.299" rx="11.688" ry="15.299" transform="translate(829.933 830.067)" fill="#3f3d56"/>
    <ellipse id="Ellipse_32" data-name="Ellipse 32" cx="11.688" cy="15.299" rx="11.688" ry="15.299" transform="translate(829.933 811.366)" fill="#3f3d56"/>
    <path id="Path_295" data-name="Path 295" d="M339.389,430.952a56.909,56.909,0,0,0,4.351-6.407l-30.683-5.055,33.211.246a56.072,56.072,0,0,0,1.07-44.356l-44.582,23.115,41.09-30.2a55.981,55.981,0,1,0-92.458,62.662,55.676,55.676,0,0,0-6.379,10.209l39.886,20.693-42.5-14.264a56.037,56.037,0,0,0,9.026,52.566,55.981,55.981,0,1,0,88.009,0,56,56,0,0,0,0-69.217Z" transform="translate(545.982 267.771)" fill="#3f2986"/>
    <path id="Path_296" data-name="Path 296" d="M239.4,517.793A55.762,55.762,0,0,0,251.366,552.4a55.98,55.98,0,1,0,88.009,0C346.873,542.872,239.4,511.505,239.4,517.793Z" transform="translate(545.997 215.528)" opacity="0.1"/>
    <ellipse id="Ellipse_33" data-name="Ellipse 33" cx="590.983" cy="18.679" rx="590.983" ry="18.679" transform="translate(239.625 933.621)" fill="#3f3d56"/>
    <path id="Path_331" data-name="Path 331" d="M599.85,802.38a6.612,6.612,0,0,0,.5.493,1.753,1.753,0,0,0,.971.2.428.428,0,0,0,.162,0,.338.338,0,0,0,.148-.134l.183-.232" transform="translate(439.325 131.065)" opacity="0.1"/>
    <path id="Path_354" data-name="Path 354" d="M554.958,796.56a1.169,1.169,0,0,1-.958.247" transform="translate(452.894 132.787)" opacity="0.1"/>
    <path id="Path_357" data-name="Path 357" d="M1016.6,794.2l9.378-5.513a22.649,22.649,0,0,0-4.795-5.738l-17.686,5.506,13.856-8.153A22.53,22.53,0,0,0,984,800.069c0,12.441,10.089,12.877,22.53,12.877s22.53-.436,22.53-12.877a22.381,22.381,0,0,0-1.936-9.153Z" transform="translate(325.643 138.417)" fill="#3f2986"/>
    <path id="Path_358" data-name="Path 358" d="M1018.985,812.36a17.591,17.591,0,0,0-3.323-2.612,15.577,15.577,0,0,0-5.471-2.668,41.281,41.281,0,0,0-5.372-.155,12.556,12.556,0,0,1-8.231-3.774c-1.281-1.324-2.288-2.95-3.83-3.957a8.384,8.384,0,0,0-5.731-1.056,13.935,13.935,0,0,0-1.7.352A22.526,22.526,0,0,0,984,806.129c0,12.441,10.089,12.878,22.53,12.878,6.041,0,11.519-.106,15.567-1.633l-.7-1.26A17.68,17.68,0,0,0,1018.985,812.36Z" transform="translate(325.643 132.357)" opacity="0.1"/>
    <path id="Path_359" data-name="Path 359" d="M384.737,782.069l-7.329-4.309a17.9,17.9,0,0,1,3.746-4.478l13.821,4.295-10.829-6.337A17.6,17.6,0,0,1,410.2,786.624c0,9.723-7.879,10.061-17.6,10.061s-17.6-.338-17.6-10.061a17.51,17.51,0,0,1,1.514-7.139Z" transform="translate(505.866 140.92)" fill="#3f2986"/>
    <path id="Path_360" data-name="Path 360" d="M385.159,796.277a13.7,13.7,0,0,1,2.591-2.035,12.019,12.019,0,0,1,4.274-2.112,31.372,31.372,0,0,1,4.224-.12,9.858,9.858,0,0,0,6.428-2.95,19.5,19.5,0,0,1,2.992-3.1,6.548,6.548,0,0,1,4.478-.824,11.924,11.924,0,0,1,1.324.275,17.473,17.473,0,0,1,1.021,5.935c0,9.723-7.879,10.061-17.6,10.061-4.717,0-9-.085-12.159-1.274l.528-.986A13.544,13.544,0,0,1,385.159,796.277Z" transform="translate(503.578 136.196)" opacity="0.1"/>
    <path id="Path_363" data-name="Path 363" d="M755.737,782.069l-7.329-4.309a17.905,17.905,0,0,1,3.746-4.478l13.821,4.295-10.829-6.337A17.6,17.6,0,0,1,781.2,786.624c0,9.723-7.879,10.061-17.6,10.061s-17.6-.338-17.6-10.061a17.511,17.511,0,0,1,1.514-7.139Z" transform="translate(396.075 140.92)" fill="#3f2986"/>
    <path id="Path_364" data-name="Path 364" d="M756.159,796.277a13.71,13.71,0,0,1,2.591-2.035,12.019,12.019,0,0,1,4.274-2.112,31.368,31.368,0,0,1,4.224-.12,9.857,9.857,0,0,0,6.428-2.95,19.506,19.506,0,0,1,2.992-3.1,6.548,6.548,0,0,1,4.478-.824,11.923,11.923,0,0,1,1.324.275,17.479,17.479,0,0,1,1.021,5.935c0,9.723-7.878,10.061-17.6,10.061-4.717,0-9-.085-12.159-1.274l.528-.986A13.549,13.549,0,0,1,756.159,796.277Z" transform="translate(393.788 136.196)" opacity="0.1"/>
    <g id="Group_317" data-name="Group 317" transform="translate(918.883 853.963)">
      <rect id="Rectangle_647" data-name="Rectangle 647" width="19.89" height="3.157" transform="matrix(-1, -0.001, 0.001, -1, 163.691, 79.725)" fill="#3f3d56"/>
      <g id="Group_316" data-name="Group 316">
        <path id="Path_503" data-name="Path 503" d="M770.332,664.7l4.1.949,155.961.083,1.4-3.268a32.982,32.982,0,0,0,2.425-17.834c-.672-4.513-2.355-9-6.178-10.945l-6.922-46.1-86.285-.154-33.383,26.926s-15.748-.283-24.3,10.368a25,25,0,0,0-5.229,13.768l-.338,5.541Z" transform="translate(-770.332 -587.439)" fill="#3f2986"/>
        <circle id="Ellipse_56" data-name="Ellipse 56" cx="19.258" cy="19.258" r="19.258" transform="translate(14.996 57.236)" fill="#3f3d56"/>
        <circle id="Ellipse_57" data-name="Ellipse 57" cx="10.136" cy="10.136" r="10.136" transform="translate(24.118 66.359)" fill="#ccc"/>
        <circle id="Ellipse_58" data-name="Ellipse 58" cx="19.258" cy="19.258" r="19.258" transform="translate(110.025 57.286)" fill="#3f3d56"/>
        <circle id="Ellipse_59" data-name="Ellipse 59" cx="10.136" cy="10.136" r="10.136" transform="translate(119.148 66.409)" fill="#ccc"/>
        <path id="Path_504" data-name="Path 504" d="M656.92,406.92l46.587.019h5.687l9.6.007v-.7l.007-8.444.007-9.48h-6.388l-5.687-.006-10.073-.007h-5.687l-11.63-.007Z" transform="translate(-612.532 -383.141)" fill="#fff"/>
        <path id="Path_505" data-name="Path 505" d="M724.849,406.953l24.621.013.006-4.831v-8.444l.007-5.35h-3.605l-5.687-.007-15.335-.006Z" transform="translate(-611.005 -383.141)" fill="#fff"/>
        <rect id="Rectangle_648" data-name="Rectangle 648" width="3.157" height="5.998" transform="matrix(-1, -0.001, 0.001, -1, 106.251, 43.702)" fill="#3f3d56"/>
        <rect id="Rectangle_649" data-name="Rectangle 649" width="3.157" height="5.998" transform="matrix(-0.001, 1, -1, -0.001, 57.015, 29.153)" fill="#3f3d56"/>
        <path id="Path_506" data-name="Path 506" d="M0,0H.347a6.6,6.6,0,0,1,6.6,6.6h0a6.6,6.6,0,0,1-6.6,6.6H0Z" transform="matrix(-1, -0.001, 0.001, -1, 54.798, 30.541)" fill="#3f3d56"/>
        <path id="Path_507" data-name="Path 507" d="M771.559,643.221a10.2,10.2,0,0,0,5.567-19.309,25,25,0,0,0-5.229,13.769Z" transform="translate(-770.304 -586.619)" fill="#3f3d56"/>
        <path id="Path_508" data-name="Path 508" d="M705.639,388.316l12.061,17.93.007-8.444-6.381-9.48Z" transform="translate(-611.437 -383.141)" fill="#f2f2f2"/>
        <path id="Path_509" data-name="Path 509" d="M739.854,388.335l9.285,13.8v-8.444l-3.6-5.35Z" transform="translate(-610.668 -383.14)" fill="#f2f2f2"/>
        <path id="Path_510" data-name="Path 510" d="M690.225,388.309l12.533,18.63h5.687l-12.534-18.63Z" transform="translate(-611.784 -383.141)" fill="#f2f2f2"/>
      </g>
    </g>
    <g id="Group_322" data-name="Group 322" transform="translate(1204.897 862.858)">
      <path id="Path_538" data-name="Path 538" d="M778.394,844.81c-1.63-3.012.224-6.71,2.363-9.45s4.725-5.493,4.654-8.93c-.071-4.926-5.3-7.832-9.45-10.443a46.691,46.691,0,0,1-8.517-6.851,12.626,12.626,0,0,1-2.622-3.544,14.4,14.4,0,0,1-.792-6.237q.284-10.549,1.051-21.074" transform="translate(-748.603 -770.626)" fill="none" stroke="#3f3d56" stroke-miterlimit="10" stroke-width="4"/>
      <path id="Path_539" data-name="Path 539" d="M758.141,779.124a7.69,7.69,0,0,1,3.839-6.3l1.725,3.4-.059-4.123a7.539,7.539,0,0,1,2.54-.3,7.69,7.69,0,1,1-8.045,7.312Z" transform="translate(-749.661 -771.8)" fill="#57b894"/>
      <path id="Path_540" data-name="Path 540" d="M769.882,823.789a7.678,7.678,0,1,0-.378-6.19l4.808,3.9-5.292-1.181a7.7,7.7,0,0,0,.862,3.473Z" transform="translate(-747.687 -764.407)" fill="#57b894"/>
      <path id="Path_541" data-name="Path 541" d="M774.13,811.8a7.678,7.678,0,0,0,8.033-7.324,7.546,7.546,0,0,0-.661-3.544,7.654,7.654,0,0,0-4.938-4.253v3.166l-1.748-3.449h0a7.7,7.7,0,0,0-8.044,7.324,8.041,8.041,0,0,0,.331,2.622,7.69,7.69,0,0,0,7.029,5.458Z" transform="translate(-748.096 -767.344)" fill="#57b894"/>
      <path id="Path_542" data-name="Path 542" d="M758.284,801.279a7.69,7.69,0,1,0-3.4-14.388l1.359,3.721-2.788-2.682a7.667,7.667,0,0,0-2.481,5.3,7.478,7.478,0,0,0,.189,2.126,7.69,7.69,0,0,0,7.123,5.918Z" transform="translate(-750.961 -769.243)" fill="#57b894"/>
      <path id="Path_543" data-name="Path 543" d="M759.131,780.561c1.772.189,3.544.744,5.28.85a5.717,5.717,0,0,0,4.879-1.748,25.976,25.976,0,0,0,1.429-2.5,5.469,5.469,0,0,1,1.925-1.819,7.513,7.513,0,0,1,.827,3.839,7.69,7.69,0,0,1-15.191,1.264C758.575,780.5,758.859,780.526,759.131,780.561Z" transform="translate(-749.634 -771.159)" opacity="0.1"/>
      <path id="Path_544" data-name="Path 544" d="M758.26,800.6a7.678,7.678,0,0,0,7.312-10.962,5.671,5.671,0,0,0-1.595,1.607,22.932,22.932,0,0,1-1.524,2.54,6.273,6.273,0,0,1-5.091,1.784c-1.854-.083-3.65-.614-5.493-.78h-.78A7.69,7.69,0,0,0,758.26,800.6Z" transform="translate(-750.937 -768.567)" opacity="0.1"/>
      <path id="Path_545" data-name="Path 545" d="M774.073,811.1a7.678,7.678,0,0,0,8.033-7.324,7.548,7.548,0,0,0-.661-3.544,6.167,6.167,0,0,0-1.618,1.559,24.984,24.984,0,0,1-1.677,2.6,7.088,7.088,0,0,1-5.434,1.9c-1.914,0-3.745-.508-5.635-.65A7.69,7.69,0,0,0,774.073,811.1Z" transform="translate(-748.039 -766.647)" opacity="0.1"/>
      <path id="Path_546" data-name="Path 546" d="M769.75,823.033a7.69,7.69,0,0,0,14.01-6.273,7.64,7.64,0,0,0-1.689,1.5,30.5,30.5,0,0,1-2.055,2.729,9.615,9.615,0,0,1-6.367,2.245,35.436,35.436,0,0,1-3.9-.2Z" transform="translate(-747.555 -763.65)" opacity="0.1"/>
      <path id="Path_547" data-name="Path 547" d="M789.465,833.533s-6.072-1.559-7.9-2.859-9.332-2.859-9.781-.768-9.12,10.383-2.268,10.443,15.912.307,17.719-.8S789.465,833.533,789.465,833.533Z" transform="translate(-748.074 -761.452)" fill="#656380"/>
      <path id="Path_548" data-name="Path 548" d="M769.379,838.934c6.851,0,15.924.307,17.719-.8,1.394-.839,1.949-3.886,2.126-5.28h.236s-.39,4.9-2.209,6.013-10.891.85-17.719.8c-1.985,0-2.658-.721-2.622-1.76C767.158,838.5,767.914,838.934,769.379,838.934Z" transform="translate(-748.07 -760.733)" opacity="0.2"/>
    </g>
    <path id="Path_511" data-name="Path 511" d="M554.062,345.33a31.606,31.606,0,0,1,20.745,7.73,31.628,31.628,0,0,1,13.957-.613,31.736,31.736,0,0,1,57.869,18.01H523.019A31.746,31.746,0,0,1,554.062,345.33Z" transform="translate(72.313 88.762)" fill="#e2e2e2"/>
    <path id="Path_512" data-name="Path 512" d="M461.439,394.495a29.881,29.881,0,0,1,19.613,7.308,29.9,29.9,0,0,1,13.2-.58,30,30,0,0,1,54.709,17.027H432.09A30.013,30.013,0,0,1,461.439,394.495Z" transform="translate(8.862 139.605)" fill="#e2e2e2"/>
    <path id="Path_513" data-name="Path 513" d="M370.293,313.231a31.089,31.089,0,0,1,20.406,7.6,31.11,31.11,0,0,1,13.729-.6,31.218,31.218,0,0,1,56.923,17.716h-121.6a31.227,31.227,0,0,1,30.537-24.716Z" transform="translate(-85.927 55.921)" fill="#e2e2e2"/>
    <g id="Group_319" data-name="Group 319" transform="translate(375.425 795.431)">
      <g id="Group_5" data-name="Group 5" transform="translate(0 0)">
        <g id="Group_1" data-name="Group 1" transform="translate(14.435 96.195)">
          <path id="Path_11" data-name="Path 11" d="M602.365,542.432H385.391v7.217H602.365Z" transform="translate(-385.391 -525.441)" fill="#959cb5"/>
          <path id="Path_12" data-name="Path 12" d="M571.21,524.528a36.727,36.727,0,0,0-34.584,24.208h69.242a36.875,36.875,0,0,0-34.584-24.208Z" transform="translate(-532.416 -524.528)" fill="#959cb5"/>
        </g>
        <path id="Path_13" data-name="Path 13" d="M606.686,431.2H565.711c-6.015,0-8.421,5.563-10.9,11.051l-18.645,41.426a14.622,14.622,0,0,0-1.353,6.69l1.278,46.387h15.186a36.535,36.535,0,0,1,60.145,0h6.24v-94.5a10.99,10.99,0,0,0-10.9-11.051Z" transform="translate(-528.046 -423.574)" fill="#e6e6e6"/>
        <ellipse id="Ellipse_1" data-name="Ellipse 1" cx="30.073" cy="30.073" rx="30.073" ry="30.073" transform="translate(23.156 102.961)" fill="#3f3d56"/>
        <ellipse id="Ellipse_2" data-name="Ellipse 2" cx="17.893" cy="17.893" rx="17.893" ry="17.893" transform="translate(35.335 115.14)" fill="#c7cfe2"/>
        <ellipse id="Ellipse_3" data-name="Ellipse 3" cx="8.646" cy="8.646" rx="8.646" ry="8.646" transform="translate(44.583 124.388)" fill="#7f8499"/>
        <path id="Path_14" data-name="Path 14" d="M349.842,424.784H485.619c4.06,0,5.413,3.834,7.443,7.443l30.6,54.507c2.706,4.887,1.2,10.45-1.955,15.036l-19.322,27.666c-2.331,3.308-5.188,6.917-9.247,6.917h-143.3a7.46,7.46,0,0,1-7.443-7.443V432.152a7.46,7.46,0,0,1,7.443-7.443Z" transform="translate(-252.857 -423.243)" fill="#3f2986"/>
        <path id="Path_15" data-name="Path 15" d="M511.012,425.758v109.39c0,3.458,5.337,3.458,5.337,0V425.758C516.349,422.3,511.012,422.3,511.012,425.758Zm-84.5,0v109.39c0,3.458,5.338,3.458,5.338,0V425.758C431.846,422.3,426.508,422.3,426.508,425.758Zm21.127,0v109.39c0,3.458,5.337,3.458,5.337,0V425.758C452.972,422.3,447.634,422.3,447.634,425.758Zm21.126,0v109.39c0,3.458,5.338,3.458,5.338,0V425.758C474.1,422.3,468.76,422.3,468.76,425.758Zm21.126,0v109.39c0,3.458,5.338,3.458,5.338,0V425.758C495.224,422.3,489.886,422.3,489.886,425.758Z" transform="translate(-323.961 -423.164)" fill="#5a3fb1"/>
        <g id="Group_2" data-name="Group 2" transform="translate(195.171 1.541)">
          <path id="Path_16" data-name="Path 16" d="M385.392,424.788h1.955l25.487,53.679a15.659,15.659,0,0,1,1.353,4.511l2.707,20.9a17.146,17.146,0,0,1,.15,1.955v30.674h-1.954V505.834a17.211,17.211,0,0,0-.151-1.955l-2.707-20.9a13.612,13.612,0,0,0-1.353-4.511Z" transform="translate(-380.806 -424.788)" fill="#5a3fb1"/>
          <path id="Path_17" data-name="Path 17" d="M415.394,481.51l-18.119,25.036,6.841,4.962,18.119-25.036Z" transform="translate(-397.275 -427.681)" fill="#5a3fb1"/>
        </g>
        <path id="Path_18" data-name="Path 18" d="M397.672,457.744,380,481.652l3.909,2.782,17.593-23.908Z" transform="translate(-164.986 -424.927)" fill="#ecf0f1"/>
        <ellipse id="Ellipse_4" data-name="Ellipse 4" cx="6.466" cy="6.466" rx="6.466" ry="6.466" transform="translate(227.424 29.133)" fill="#ffe356"/>
        <ellipse id="Ellipse_5" data-name="Ellipse 5" cx="2.631" cy="2.631" rx="2.631" ry="2.631" transform="translate(231.258 32.967)" fill="#fefefe"/>
        <path id="Path_19" data-name="Path 19" d="M511.939,547.819H476a6.273,6.273,0,0,0-6.24,6.241v9.322a6.272,6.272,0,0,0,6.24,6.239h35.936a6.272,6.272,0,0,0,6.24-6.239v-9.322A6.273,6.273,0,0,0,511.939,547.819Z" transform="translate(-366.839 -429.521)" fill="#afb9d2"/>
        <ellipse id="Ellipse_6" data-name="Ellipse 6" cx="6.466" cy="6.466" rx="6.466" ry="6.466" transform="translate(192.314 76.196)" fill="#ffe356"/>
        <ellipse id="Ellipse_7" data-name="Ellipse 7" cx="2.631" cy="2.631" rx="2.631" ry="2.631" transform="translate(196.148 80.031)" fill="#fefefe"/>
        <path id="Path_20" data-name="Path 20" d="M601.7,444.118H576.283c-3.834,0-6.314,3.082-7.668,6.24l-13.833,32.178a5.153,5.153,0,0,0,4.586,7.218H601.7c3.834,0,6.917-2.783,6.917-6.241V450.357C608.612,446.9,605.454,444.118,601.7,444.118Z" transform="translate(-537.565 -424.233)" fill="#8597b1"/>
        <path id="Path_21" data-name="Path 21" d="M628.46,529.519h-8.8a5.68,5.68,0,0,0-5.639,5.639v13.683a5.68,5.68,0,0,0,5.639,5.639h8.8Z" transform="translate(-614.025 -428.588)" fill="#6c7678"/>
        <path id="Path_22" data-name="Path 22" d="M430.59,524.528a36.725,36.725,0,0,0-34.583,24.208h69.242a36.875,36.875,0,0,0-34.583-24.208Z" transform="translate(-243.914 -428.333)" fill="#959cb5"/>
        <ellipse id="Ellipse_8" data-name="Ellipse 8" cx="30.073" cy="30.073" rx="30.073" ry="30.073" transform="translate(156.603 102.961)" fill="#3f3d56"/>
        <ellipse id="Ellipse_9" data-name="Ellipse 9" cx="17.893" cy="17.893" rx="17.893" ry="17.893" transform="translate(168.782 115.14)" fill="#c7cfe2"/>
        <ellipse id="Ellipse_10" data-name="Ellipse 10" cx="8.646" cy="8.646" rx="8.646" ry="8.646" transform="translate(178.03 124.388)" fill="#7f8499"/>
        <ellipse id="Ellipse_11" data-name="Ellipse 11" cx="32.779" cy="32.779" rx="32.779" ry="32.779" transform="translate(115.028 19.434)" fill="#009245"/>
        <ellipse id="Ellipse_12" data-name="Ellipse 12" cx="29.621" cy="29.621" rx="29.621" ry="29.621" transform="translate(118.185 22.592)" fill="#ffe356"/>
        <g id="Group_3" data-name="Group 3" transform="translate(127.17 30.261)">
          <path id="Path_23" data-name="Path 23" d="M465.572,469.795l-10.149-2.782-2.782,10.15,2.33-1.353,4.511,7.819h0c3.459,6.015-.9,10-7.743,10h9.1a8.628,8.628,0,0,0,7.669-4.437,8.415,8.415,0,0,0,0-8.8l-5.338-9.248Z" transform="translate(-428.471 -455.661)" fill="#009245"/>
          <path id="Path_24" data-name="Path 24" d="M486.4,495.989l7.443-7.443L486.4,481.1v2.857h-8.27c-6.916.527-7.819-5.262-4.811-10.451l-4.135,7.218a8.414,8.414,0,0,0,0,8.8,8.777,8.777,0,0,0,7.668,4.437H486.4Z" transform="translate(-467.941 -455.992)" fill="#009245"/>
          <path id="Path_25" data-name="Path 25" d="M468.752,459.487l-4.511,7.893-2.48-1.428,2.707,10.15,10.149-2.707-2.255-1.278,4.06-7.067c4.886-8.946,10.9.075,11.127.451l-3.459-6.013a8.776,8.776,0,0,0-7.668-4.436A8.626,8.626,0,0,0,468.752,459.487Z" transform="translate(-455.784 -455.051)" fill="#009245"/>
        </g>
        <ellipse id="Ellipse_13" data-name="Ellipse 13" cx="8.796" cy="2.481" rx="8.796" ry="2.481" transform="translate(55.935 70.558)" fill="#c6cbd6"/>
        <path id="Path_26" data-name="Path 26" d="M560.594,497.83a19.12,19.12,0,0,0-7.669,1.278.556.556,0,0,0,0,1.053,23.645,23.645,0,0,0,15.338,0,.556.556,0,0,0,0-1.053A19.12,19.12,0,0,0,560.594,497.83Z" transform="translate(-495.863 -426.972)" fill="#e4e7ed"/>
        <g id="Group_4" data-name="Group 4" transform="translate(5.714 1.767)">
          <path id="Path_27" data-name="Path 27" d="M584.529,425.026H581.3a1.668,1.668,0,0,0-1.654,1.653v4.211h6.466v-4.211a1.669,1.669,0,0,0-1.654-1.653Z" transform="translate(-544.759 -425.026)" fill="#ff7069"/>
          <path id="Path_28" data-name="Path 28" d="M620.98,507.971h-2.857a1.861,1.861,0,0,0-1.879,1.879v7.819a1.862,1.862,0,0,0,1.879,1.88h2.857a1.862,1.862,0,0,0,1.879-1.88V509.85A1.861,1.861,0,0,0,620.98,507.971Z" transform="translate(-616.244 -429.256)" fill="#ff7069"/>
        </g>
        <path id="Path_29" data-name="Path 29" d="M548.214,443.4h-1.052V530.16c.376.3.677.6,1.052.9V443.4Z" transform="translate(-470.326 -424.192)" fill="#c6cbd6"/>
        <path id="Path_30" data-name="Path 30" d="M514.21,550.988H474.063a1.028,1.028,0,0,0-1.052,1.052h0a1.027,1.027,0,0,0,1.052,1.053H514.21a1.027,1.027,0,0,0,1.053-1.053h0A1.027,1.027,0,0,0,514.21,550.988Z" transform="translate(-367.005 -429.683)" fill="#8597b1"/>
        <path id="Path_31" data-name="Path 31" d="M603.279,447.727H577.868c-3.834,0-6.314,3.082-7.668,6.239l-13.833,32.178a5.392,5.392,0,0,0-.451,2.18,5.422,5.422,0,0,1-1.052-5.789L568.7,450.357c1.353-3.157,3.835-6.24,7.669-6.24h25.411c3.759,0,6.766,2.707,6.916,6.015a7.345,7.345,0,0,0-5.488-2.405Z" transform="translate(-537.721 -424.233)" fill="#5d718f"/>
      </g>
    </g>
    <g id="Group_323" data-name="Group 323" transform="translate(813.728 869.172)">
      <path id="Path_527" data-name="Path 527" d="M239.472,806.161c1.374-2.534-.18-5.642-2-7.91s-3.968-4.615-3.922-7.5c.067-4.142,4.462-6.59,8-8.784a38.986,38.986,0,0,0,7.17-5.763,10.548,10.548,0,0,0,2.2-2.948,12.046,12.046,0,0,0,.667-5.236q-.233-8.871-.88-17.728" transform="translate(-229.728 -743.81)" fill="none" stroke="#3f3d56" stroke-miterlimit="10" stroke-width="4"/>
      <path id="Path_528" data-name="Path 528" d="M262.849,746.734a6.463,6.463,0,0,0-3.228-5.3l-1.447,2.861.047-3.462a6.463,6.463,0,1,0,4.629,5.9Z" transform="translate(-235.184 -740.574)" fill="#57b894"/>
      <path id="Path_529" data-name="Path 529" d="M245.9,810.69a6.463,6.463,0,0,1-12.205-2.668,6.562,6.562,0,0,1,.42-2.621,6.47,6.47,0,0,1,12.1.067l-4.035,3.288,4.435-1.027A6.4,6.4,0,0,1,245.9,810.69Z" transform="translate(-229.775 -760.784)" fill="#57b894"/>
      <path id="Path_530" data-name="Path 530" d="M243.853,790.132a6.463,6.463,0,0,1-6.756-6.156,6.39,6.39,0,0,1,.56-2.941,6.469,6.469,0,0,1,4.148-3.582v2.668l1.461-2.895h0a6.463,6.463,0,0,1,6.756,6.156,6.344,6.344,0,0,1-.273,2.2A6.47,6.47,0,0,1,243.853,790.132Z" transform="translate(-230.907 -752.779)" fill="#57b894"/>
      <path id="Path_531" data-name="Path 531" d="M267.357,774.474a6.47,6.47,0,1,1,2.828-12.1l-1.14,3.135,2.348-2.261a6.436,6.436,0,0,1,2.088,4.462,6.289,6.289,0,0,1-.16,1.781,6.463,6.463,0,0,1-5.963,4.982Z" transform="translate(-238.718 -747.558)" fill="#57b894"/>
      <path id="Path_532" data-name="Path 532" d="M261.981,750.222c-1.494.167-2.941.627-4.442.72a4.83,4.83,0,0,1-4.088-1.427,19.733,19.733,0,0,1-1.194-2.108,4.582,4.582,0,0,0-1.627-1.527,6.463,6.463,0,1,0,12.079,4.288C262.468,750.182,262.221,750.2,261.981,750.222Z" transform="translate(-235.183 -742.341)" opacity="0.1"/>
      <path id="Path_533" data-name="Path 533" d="M267.38,776.324a6.47,6.47,0,0,1-6.149-9.224,4.85,4.85,0,0,1,1.3,1.334,21.493,21.493,0,0,0,1.281,2.134,5.313,5.313,0,0,0,4.289,1.5c1.561-.067,3.061-.52,4.615-.667a3.85,3.85,0,0,0,.667-.04,6.463,6.463,0,0,1-6,4.962Z" transform="translate(-238.741 -749.408)" opacity="0.1"/>
      <path id="Path_534" data-name="Path 534" d="M243.853,792.037a6.463,6.463,0,0,1-6.756-6.156,6.39,6.39,0,0,1,.56-2.941,5.338,5.338,0,0,1,1.367,1.334,21.927,21.927,0,0,0,1.4,2.174A5.949,5.949,0,0,0,245,788.056c1.654-.04,3.141-.427,4.735-.554A6.47,6.47,0,0,1,243.853,792.037Z" transform="translate(-230.907 -754.684)" opacity="0.1"/>
      <path id="Path_535" data-name="Path 535" d="M245.9,812.759a6.463,6.463,0,0,1-12.205-2.668,6.562,6.562,0,0,1,.42-2.621,6.336,6.336,0,0,1,1.421,1.267,26.823,26.823,0,0,0,1.727,2.294,8.109,8.109,0,0,0,5.336,1.881,28.173,28.173,0,0,0,3.3-.154Z" transform="translate(-229.775 -762.853)" opacity="0.1"/>
      <path id="Path_536" data-name="Path 536" d="M227.82,830.143a52.951,52.951,0,0,0,6.67-3.088c1.567-1.087,7.85-2.408,8.23-.667s7.63,8.75,1.894,8.8-13.386.947-14.92,0S227.82,830.143,227.82,830.143Z" transform="translate(-227.82 -768.873)" fill="#656380"/>
    </g>
  </g>
</svg>
