<svg xmlns="http://www.w3.org/2000/svg" width="64.799" height="64.454" viewBox="0 0 64.799 64.454"><defs><style>.a{fill:#959595;}</style></defs><g transform="translate(0 -0.12)"><g transform="translate(0 0.12)"><path class="a" d="M57.9,35.847l-24.73-17.5a.882.882,0,0,0-1.372.534l-2.12,9.851L16.617,35.792a.882.882,0,0,0,.42,1.659H22.7v5.973H17.542a2.8,2.8,0,0,0-2.8,2.8V56.581H18.29v-9a.524.524,0,0,1,.524-.524H22.7v9.52H54.559V37.451h2.833A.883.883,0,0,0,57.9,35.847ZM47.4,47.059H41.9a.847.847,0,0,1-.845-.845V41.845A.846.846,0,0,1,41.9,41h5.5a.845.845,0,0,1,.844.845v4.369A.845.845,0,0,1,47.4,47.059Z" transform="translate(6.523 7.871)"/><path class="a" d="M5.187,8.527a10.126,10.126,0,0,1,8.563,2.239A11.281,11.281,0,0,1,16.7,14.2a5.64,5.64,0,0,0-3.409-1.858,5.834,5.834,0,0,0-5.457,2.428,5.181,5.181,0,0,0-.939,2.043.517.517,0,0,0,.812.519,6.469,6.469,0,0,1,5.024-1.217,6.65,6.65,0,0,1,3.937,1.9C16.516,18.133.8,35.828,0,64.571H9.66C8.816,32.874,19.833,20.544,19.841,20.5h0a6.7,6.7,0,0,1,2.53,3.274,6.472,6.472,0,0,1-.058,5.186.512.512,0,0,0,.682.666,5.235,5.235,0,0,0,1.793-1.385,5.833,5.833,0,0,0,1.129-5.864,5.637,5.637,0,0,0-2.581-2.9,11.307,11.307,0,0,1,4.007,2.1,10.136,10.136,0,0,1,4.111,7.7.554.554,0,0,0,.978.346,8.226,8.226,0,0,0,1.841-4.307,9.157,9.157,0,0,0-3.21-8.48A8.954,8.954,0,0,0,28.411,15.4c.094.009.186.019.281.03a10.178,10.178,0,0,1,7.381,4.128.686.686,0,0,0,1.232-.326,8.211,8.211,0,0,0-.578-3.876,9.141,9.141,0,0,0-7.583-5.937,8.942,8.942,0,0,0-3.573.424,8.919,8.919,0,0,0-.392-3.572,9.138,9.138,0,0,0-7.5-6.048,8.155,8.155,0,0,0-4,.343.651.651,0,0,0-.036,1.206,10.159,10.159,0,0,1,5.777,6.291c.032.091.062.179.091.268A8.934,8.934,0,0,0,17.52,6.071a9.163,9.163,0,0,0-8.985-1.21,8.222,8.222,0,0,0-3.86,2.872A.5.5,0,0,0,5.187,8.527Z" transform="translate(0 -0.12)"/></g></g></svg>