<svg xmlns="http://www.w3.org/2000/svg" width="55.706" height="66.071" viewBox="0 0 55.706 66.071"><defs><style>.a{fill:#959595;}</style></defs><g transform="translate(13.139 0)"><g transform="translate(0 0)"><path class="a" d="M163.82,18.688a11.871,11.871,0,0,0,.5-1.857c1.938-11.654-3.795-12.058-3.795-12.058a8.877,8.877,0,0,0-3.459-3.216A11.75,11.75,0,0,0,149.959.05a10.734,10.734,0,0,0-2.826.538,12.543,12.543,0,0,0-3.109,1.588,16.217,16.217,0,0,0-3.2,2.651,12.818,12.818,0,0,0-3.459,6.069,13.194,13.194,0,0,0,.027,5.935,10.876,10.876,0,0,0,.5,1.857c-1.144-.108-2.5.552-1.225,5.06.915,3.3,1.776,4.212,2.436,4.266.606,3.916,3.62,8.9,8.586,10.645a9.452,9.452,0,0,0,6.3-.013A14.2,14.2,0,0,0,162.6,28.014c.659-.054,1.521-.982,2.449-4.266C166.323,19.24,164.964,18.581,163.82,18.688Z" transform="translate(-136.147 0)"/></g></g><g transform="translate(0 37.542)"><g transform="translate(0)"><path class="a" d="M88.917,284.742a43.363,43.363,0,0,1-12.663-5.773l-4.427,14.009-.834,2.638-.013-.04-.727,2.234-2.342-6.634c5.746-8.021-1.157-7.94-1.548-7.926-.39-.013-7.294-.094-1.548,7.926l-2.342,6.634-.727-2.234-.013.04-.834-2.638-4.427-14.009a43.363,43.363,0,0,1-12.663,5.773c-5.208,1.319-5.464,7.334-5.248,10.322-.027,0,.283,4.037.579,5.814,0,0,10.174,6.608,27.211,6.621s27.211-6.621,27.211-6.621c.31-1.776.606-5.814.606-5.814C94.38,292.09,94.125,286.074,88.917,284.742Z" transform="translate(-38.509 -278.969)"/></g></g></svg>