<svg xmlns="http://www.w3.org/2000/svg" width="28.21" height="28.037" viewBox="0 0 28.21 28.037"><defs><style>.a{fill:#27b93b;fill-rule:evenodd;}</style></defs><path class="a" d="M65.443,68.52l12.03-2.38V91.754H78.6v-20.6l12.03,1.916v18.68H92.14v2.423H63.93V91.754h1.513ZM86.862,80.591H89.2v2.423H86.862Zm-3.418,0h2.336v2.423H83.444Zm-3.418,0h2.336v2.423H80.026Zm6.836-3.916H89.2V79.1H86.862Zm-3.418,0h2.336V79.1H83.444Zm-3.418,0h2.336V79.1H80.026Zm-13.218,5.7h9.3v1.346h-9.3Zm0-3.488h9.3v1.346h-9.3Zm0-3.488h9.3v1.346h-9.3Zm0-3.488h9.3v1.346h-9.3Z" transform="translate(-63.93 -66.14)"/></svg>