<svg xmlns="http://www.w3.org/2000/svg" width="33.13" height="18.569" viewBox="0 0 33.13 18.569"><defs><style>.a{fill:#3f2986;}</style></defs><g transform="translate(0 -115.333)"><path class="a" d="M2.582,128.244H22v2.686H7.873a3.014,3.014,0,0,0-5.647-.051,1.286,1.286,0,0,1-.929-1.235v-.114A1.286,1.286,0,0,1,2.582,128.244Zm4.6,3.415a2.243,2.243,0,1,1-2.244-2.244A2.246,2.246,0,0,1,7.183,131.659Zm-.686,0a1.557,1.557,0,1,0-1.557,1.557A1.559,1.559,0,0,0,6.5,131.659Zm23.361,0a2.243,2.243,0,1,1-2.243-2.244A2.246,2.246,0,0,1,29.858,131.659Zm-.686,0a1.557,1.557,0,1,0-1.557,1.557A1.559,1.559,0,0,0,29.172,131.659Zm3.958-6.444v5.072a.429.429,0,0,1-.428.429H30.46a3.013,3.013,0,0,0-5.491,0H23.457a.429.429,0,0,1-.429-.429V120.1a.429.429,0,0,1,.429-.429H29.1a1.053,1.053,0,0,1,.858.429Zm-2-1.114L29.2,120.9c-.149-.276-.332-.428-.986-.428h-3.5a.429.429,0,0,0-.429.428v3.2a.429.429,0,0,0,.429.429H30.7A.429.429,0,0,0,31.13,124.1Zm1.671,4.872a.4.4,0,0,0-.8,0v.758a.4.4,0,0,0,.8,0ZM0,127.477H22V115.333H0Z"/></g></svg>