<svg xmlns="http://www.w3.org/2000/svg" width="65.714" height="46.184" viewBox="0 0 65.714 46.184"><defs><style>.a{fill:#959595;}</style></defs><path class="a" d="M63.408,121.711V93.752a2.813,2.813,0,0,0-2.813-2.813H32.65a2.813,2.813,0,0,0-2.813,2.813v27.959a.938.938,0,0,0,.938.938h31.7A.938.938,0,0,0,63.408,121.711Zm-22.566,9.578a5.835,5.835,0,1,0,5.835-5.835A5.835,5.835,0,0,0,40.842,131.289Zm2.917,0a2.917,2.917,0,1,1,2.917,2.917A2.917,2.917,0,0,1,43.759,131.289Zm7.942-5.835H64.776a.938.938,0,0,1,.938.938v2.845a.938.938,0,0,1-.938.938H54.3A7.7,7.7,0,0,0,51.7,125.454Zm-41.387,5.835a5.835,5.835,0,1,0,5.835-5.835A5.835,5.835,0,0,0,10.315,131.289Zm2.917,0a2.917,2.917,0,1,1,2.917,2.917A2.917,2.917,0,0,1,13.232,131.289ZM0,126.392v2.845a.938.938,0,0,0,.938.938H8.53a7.7,7.7,0,0,1,15.24,0H39.056a7.7,7.7,0,0,1,2.595-4.72H27.156V98.633a1.875,1.875,0,0,0-1.875-1.875H16.428a7.5,7.5,0,0,0-6.217,3.3L4.5,108.514a7.5,7.5,0,0,0-1.284,4.2v12.742H.938A.938.938,0,0,0,0,126.392Zm9.513-17.661,4.564-6.485a.938.938,0,0,1,.767-.4h7.118a.938.938,0,0,1,.938.938v6.485a.938.938,0,0,1-.938.938H10.279A.938.938,0,0,1,9.513,108.731Z" transform="translate(0 -90.939)"/></svg>