<svg xmlns="http://www.w3.org/2000/svg" width="78.755" height="59.695" viewBox="0 0 78.755 59.695"><defs><style>.a{fill:#959595;}</style></defs><path class="a" d="M1.02,121.7H3.5V107.835a8.167,8.167,0,0,1,1.4-4.559l6.212-9.2a8.165,8.165,0,0,1,6.762-3.59H27.5a2.039,2.039,0,0,1,2.04,2.04V121.7H45.307a8.379,8.379,0,0,0-2.825,5.141H25.856a8.373,8.373,0,0,0-16.575,0H1.02A1.023,1.023,0,0,1,0,125.817v-3.1A1.023,1.023,0,0,1,1.02,121.7Zm10.159-16.585H23.888a1.017,1.017,0,0,0,1.02-1.02V97.044a1.023,1.023,0,0,0-1.02-1.02H16.146a1.034,1.034,0,0,0-.836.428l-4.967,7.058A1.019,1.019,0,0,0,11.179,105.112ZM17.564,121.7a6.349,6.349,0,1,1-6.344,6.354A6.347,6.347,0,0,1,17.564,121.7Zm0,9.527a3.172,3.172,0,1,0-3.172-3.172A3.175,3.175,0,0,0,17.564,131.223Zm52.9-9.527a1.023,1.023,0,0,1,1.02,1.02v3.1a1.023,1.023,0,0,1-1.02,1.02h-11.4a8.415,8.415,0,0,0-2.815-5.141H70.46Zm-19.685,0a6.349,6.349,0,1,1-6.344,6.354A6.353,6.353,0,0,1,50.774,121.7Zm0,9.527a3.172,3.172,0,1,0-3.172-3.172A3.175,3.175,0,0,0,50.774,131.223ZM35.516,84.161H47.337a17.123,17.123,0,0,0-.887,5.477,17.475,17.475,0,0,0,22.521,16.717v11.271a1.023,1.023,0,0,1-1.02,1.02H33.476a1.023,1.023,0,0,1-1.02-1.02V87.221A3.056,3.056,0,0,1,35.516,84.161Z" transform="translate(0 -74.7)"/><path class="a" d="M16.767,15a6.767,6.767,0,0,1,6.767,6.767c0,3.478-4.264,8.838-6.767,11.572C14.264,30.606,10,25.246,10,21.767A6.767,6.767,0,0,1,16.767,15Zm0,10.828a4.06,4.06,0,1,0-4.06-4.06A4.06,4.06,0,0,0,16.767,25.828Z" transform="translate(47.099 -9.586)"/><ellipse class="a" cx="1.449" cy="0.966" rx="1.449" ry="0.966" transform="translate(62.129 11.234)"/><path class="a" d="M18.888,11A14.888,14.888,0,1,1,4,25.888,14.888,14.888,0,0,1,18.888,11Zm-.961,26.677a1.372,1.372,0,0,0,1.922,0c.866-.88,8.513-8.689,8.513-14.5a9.474,9.474,0,0,0-18.949,0C9.414,28.988,17.061,36.8,17.927,37.677Z" transform="translate(44.978 -11)"/></svg>