<svg xmlns="http://www.w3.org/2000/svg" width="21.655" height="18.948" viewBox="0 0 21.655 18.948"><defs><style>.a{fill:#3F2986;}</style></defs><g transform="translate(0 -31.998)"><g transform="translate(0 33.352)"><g transform="translate(0 0)"><path class="a" d="M14.888,73.518V78.89H2.707V66.709h4.06V64H1.353A1.354,1.354,0,0,0,0,65.355V80.243A1.353,1.353,0,0,0,1.353,81.6H16.241a1.352,1.352,0,0,0,1.353-1.353V73.518Z" transform="translate(0 -64.002)"/></g></g><g transform="translate(5.414 31.998)"><g transform="translate(0 0)"><path class="a" d="M143.97,36.194l-5.414-4.06a.677.677,0,0,0-1.083.541v2.03h-2.03A7.452,7.452,0,0,0,128,42.149a.677.677,0,0,0,1.282.3l.16-.318a6.057,6.057,0,0,1,5.448-3.369h2.585V40.8a.677.677,0,0,0,1.083.541l5.414-4.06a.677.677,0,0,0,0-1.083Z" transform="translate(-128 -31.998)"/></g></g></g></svg>
