<svg xmlns="http://www.w3.org/2000/svg" width="39.875" height="31.178" viewBox="0 0 39.875 31.178"><defs><style>.a{fill:#3f2986;}</style></defs><g transform="translate(0 -52.745)"><g transform="translate(5.197 52.745)"><path class="a" d="M96.163,70.428,80.432,65.09,82.2,59.871l.946.32a1.518,1.518,0,1,0,.974-2.876L70.9,52.827a1.52,1.52,0,0,0-.977,2.879l.946.32L65.986,70.415l-.943-.318a1.519,1.519,0,1,0-.977,2.876l13.219,4.489a1.52,1.52,0,0,0,.977-2.879l-.943-.321,1.649-4.856L94.7,74.745a2.279,2.279,0,1,0,1.464-4.317Z" transform="translate(-63.034 -52.745)"/></g><g transform="translate(0 79.802)"><path class="a" d="M21.131,380.931H2.063a2.061,2.061,0,1,0,0,4.121H21.131a2.061,2.061,0,1,0,0-4.121Z" transform="translate(0 -380.931)"/></g></g></svg>