<svg xmlns="http://www.w3.org/2000/svg" width="31.973" height="31.965" viewBox="0 0 31.973 31.965"><defs><style>.a{fill:#27b93b;}</style></defs><g transform="translate(-687 627.994)"><path class="a" d="M26.8,21.751l-4.324-1.026L21.7,19.638a5.827,5.827,0,0,0,2.271-2.563,3.715,3.715,0,0,0,1.752-2.7A2.3,2.3,0,0,0,25.3,12.97,10.007,10.007,0,0,0,25.975,6.3a2.9,2.9,0,0,0-1.491-1.7,2.647,2.647,0,0,0-1.927-.034c-.852-1.1-3.346-3.538-8.022-2.125A7.992,7.992,0,0,0,10.065,6.67a7.289,7.289,0,0,0,.664,5.947,1.931,1.931,0,0,0-.588,1.034c-.2.975.329,2.115,1.584,3.389a6.448,6.448,0,0,0,2.56,2.646l-.753,1.038-4.353,1.03A9.292,9.292,0,0,0,2,30.829v3.142H33.973V30.824A9.293,9.293,0,0,0,26.8,21.751Zm-13.91-5.357-.051-.121-.093-.093c-1.315-1.308-1.351-2.007-1.306-2.247a.729.729,0,0,1,.406-.485l.708-.276-.378-.669a9.211,9.211,0,0,1-.978-2.42,6.276,6.276,0,0,1,3.181.3l1.058.481-.262-2.528c3.775.375,4.892,2.1,4.9,2.111l.67,1.144L21.592,9.6A8.118,8.118,0,0,1,24.33,11.84a7.029,7.029,0,0,1-.4.884l-.273.481.413.365a1.041,1.041,0,0,1,.325.776c-.026.531-.5,1.142-1.359,1.767l-.17.126-.069.2c-.041.115-1.04,2.834-4.809,2.834A5.368,5.368,0,0,1,12.892,16.394Zm-.405,10.85,2.022-1.767L12.871,23.9l2-2.753L16.355,31.3Zm5.41,5.395L16.1,20.386a8.171,8.171,0,0,0,1.883.216,7.974,7.974,0,0,0,1.907-.223l-1.816,12.26Zm1.723-1.315L21.13,21.13,23.108,23.9,21.489,25.48l2.018,1.764Z" transform="translate(685 -630)"/></g></svg>