<svg xmlns="http://www.w3.org/2000/svg" width="52.191" height="65.459" viewBox="0 0 52.191 65.459"><defs><style>.a{fill:#959595;}</style></defs><g transform="translate(0 0)"><path class="a" d="M44.347,3.057h-3.1A5.222,5.222,0,0,0,36.519,0H20.859a5.235,5.235,0,0,0-4.733,3.057h-3.1A10.467,10.467,0,0,0,2.591,13.5H54.782A10.466,10.466,0,0,0,44.347,3.057Z" transform="translate(-2.591)"/><path class="a" d="M3.831,46.2A9.2,9.2,0,0,0,13,55.372h27.51a9.194,9.194,0,0,0,9.17-9.17V6.466H3.831ZM25.5,42.383l-.031.371-7.04-.492a2.535,2.535,0,0,1-1.917-1.628c-.668-1.549.2-3.395.7-4.882,1.3.2,8.532.461,8.532.461Zm11.249-1.306a2.033,2.033,0,0,1-1.638,1.19c-1.208.108-3.674.2-3.674.2l.136,2.747L27.711,39.07,31.243,33l.12,2.9s5.676.684,8.53-.832ZM41.274,30.8a2.551,2.551,0,0,1-.261,2.506c-.906,1.426-2.916,1.751-4.429,2.176-.561-1.188-4.431-7.306-4.431-7.306l5.24-3.277.317-.184ZM31.638,16.849a2.028,2.028,0,0,1,1.807.906c.653,1.016,1.866,3.169,1.866,3.169l2.381-1.388-3.681,6.249-7.017-.34,2.516-1.439s-2.01-5.348-4.669-7.188Zm-11.205.709a2.539,2.539,0,0,1,2.34-.922c1.679.148,2.9,1.782,3.968,2.931-.794,1.047-4.442,7.3-4.442,7.3l-5.32-3.141-.31-.195Zm-1.18,8.84,3.023,6.346-2.463-1.539s-3.763,4.3-4.122,7.516l-3.19-6a2.03,2.03,0,0,1-.056-2.025c.586-1.055,1.907-3.146,1.907-3.146l-2.348-1.439Z" transform="translate(-0.657 10.087)"/></g></svg>