<svg xmlns="http://www.w3.org/2000/svg" width="74.57" height="74.573" viewBox="0 0 74.57 74.573"><defs><style>.a{fill:#e7eced;}.b{fill:#556080;}</style></defs><g transform="translate(0 0)"><path class="a" d="M22.348,55.209,11.223,61.277a10,10,0,0,0-1.786,1.271,37.263,37.263,0,0,0,47.877.124,9.87,9.87,0,0,0-1.961-1.314L43.44,55.4a4.543,4.543,0,0,1-2.512-4.064V46.664a17.994,17.994,0,0,0,1.127-1.449,27.413,27.413,0,0,0,3.7-7.463,3.742,3.742,0,0,0,2.654-3.56V29.2a3.725,3.725,0,0,0-1.247-2.765V19.225S48.647,8,33.447,8,19.728,19.225,19.728,19.225v7.212A3.72,3.72,0,0,0,18.481,29.2v4.989a3.741,3.741,0,0,0,1.725,3.139,24.759,24.759,0,0,0,4.511,9.333v4.559A4.548,4.548,0,0,1,22.348,55.209Z" transform="translate(3.841 3.257)"/><g transform="translate(0 0)"><path class="b" d="M37.924.006a37.263,37.263,0,0,0-24.63,65.788,9.908,9.908,0,0,1,1.769-1.258l11.125-6.069a4.545,4.545,0,0,0,2.368-3.989V49.919a24.736,24.736,0,0,1-4.511-9.333,3.742,3.742,0,0,1-1.725-3.139V32.458a3.725,3.725,0,0,1,1.247-2.765V22.48S22.085,11.256,37.285,11.256,51,22.48,51,22.48v7.212a3.72,3.72,0,0,1,1.247,2.765v4.989a3.742,3.742,0,0,1-2.654,3.56,27.413,27.413,0,0,1-3.7,7.463,17.993,17.993,0,0,1-1.127,1.449v4.674a4.542,4.542,0,0,0,2.512,4.064l11.913,5.956a9.92,9.92,0,0,1,1.956,1.311A37.278,37.278,0,0,0,37.924.006Z" transform="translate(0 0)"/></g></g></svg>