<svg xmlns="http://www.w3.org/2000/svg" width="229.991" height="230" viewBox="0 0 229.991 230"><defs><style>.a{fill:#e7eced;}.b{fill:#556080;}</style></defs><path class="a" d="M49.257,153.6,14.944,172.317a30.835,30.835,0,0,0-5.507,3.919,114.927,114.927,0,0,0,147.665.382,30.443,30.443,0,0,0-6.049-4.053l-36.744-18.37a14.012,14.012,0,0,1-7.746-12.533V127.245a55.5,55.5,0,0,0,3.476-4.47A84.547,84.547,0,0,0,121.46,99.758a11.541,11.541,0,0,0,8.185-10.979V73.39a11.488,11.488,0,0,0-3.845-8.527V42.618S130.369,8,83.488,8,41.177,42.618,41.177,42.618V64.863a11.472,11.472,0,0,0-3.845,8.527V88.779a11.537,11.537,0,0,0,5.32,9.682,76.364,76.364,0,0,0,13.913,28.785v14.06A14.027,14.027,0,0,1,49.257,153.6Z" transform="translate(31.516 26.72)"/><path class="b" d="M116.966.017A114.928,114.928,0,0,0,41,202.921a30.555,30.555,0,0,1,5.455-3.88l34.313-18.717a14.017,14.017,0,0,0,7.3-12.3v-14.06A76.29,76.29,0,0,1,74.16,125.176a11.541,11.541,0,0,1-5.32-9.682V100.106a11.488,11.488,0,0,1,3.845-8.527V69.334S68.115,34.717,115,34.717s42.311,34.617,42.311,34.617V91.579a11.472,11.472,0,0,1,3.845,8.527v15.388a11.541,11.541,0,0,1-8.185,10.979,84.546,84.546,0,0,1-11.422,23.017,55.489,55.489,0,0,1-3.476,4.47v14.416a14.007,14.007,0,0,0,7.746,12.533l36.744,18.37a30.6,30.6,0,0,1,6.032,4.045A114.973,114.973,0,0,0,116.966.017Z" transform="translate(0 0)"/></svg>