<svg xmlns="http://www.w3.org/2000/svg" width="28" height="28" viewBox="0 0 28 28"><defs><style>.a{fill:#707070;}</style></defs><path class="a" d="M28,14A14,14,0,1,0,4.544,24.313l-.013.012.454.383c.03.025.062.045.091.07.241.2.491.39.746.574.082.06.165.119.249.177q.408.281.836.534l.187.108c.312.178.631.345.957.5l.072.033a13.874,13.874,0,0,0,3.386,1.072l.094.017c.369.064.741.115,1.118.149l.138.011c.376.031.755.051,1.14.051s.758-.02,1.131-.05l.142-.011q.561-.051,1.109-.146l.1-.017a13.873,13.873,0,0,0,3.338-1.046l.117-.053q.471-.221.922-.477l.223-.129c.274-.161.543-.33.8-.509.094-.064.186-.132.279-.2.223-.161.443-.327.656-.5.047-.038.1-.071.145-.11l.466-.389-.014-.012A13.964,13.964,0,0,0,28,14ZM1.018,14a12.982,12.982,0,1,1,21.591,9.7,3.816,3.816,0,0,0-.455-.273l-4.31-2.155a1.128,1.128,0,0,1-.627-1.015V18.756c.1-.123.205-.263.314-.416a10.374,10.374,0,0,0,1.332-2.608,1.848,1.848,0,0,0,1.061-1.674v-1.8a1.852,1.852,0,0,0-.452-1.206V8.671a4.106,4.106,0,0,0-.959-2.985A5.73,5.73,0,0,0,14,4.073,5.732,5.732,0,0,0,9.486,5.686a4.106,4.106,0,0,0-.959,2.985v2.376a1.855,1.855,0,0,0-.452,1.206v1.8a1.852,1.852,0,0,0,.682,1.436,9.566,9.566,0,0,0,1.575,3.253V20.22a1.136,1.136,0,0,1-.592,1l-4.025,2.2a3.679,3.679,0,0,0-.383.242A12.951,12.951,0,0,1,1.018,14Zm20.6,10.5q-.267.194-.543.374c-.085.055-.169.11-.255.163-.24.149-.485.29-.734.423l-.166.085a12.972,12.972,0,0,1-1.776.751l-.065.022q-.479.159-.969.281h0c-.33.081-.664.149-1,.2l-.027.005c-.316.051-.635.089-.955.117l-.17.013c-.316.024-.634.039-.953.039s-.645-.016-.965-.04l-.166-.013c-.323-.029-.644-.067-.962-.119l-.043-.008a12.933,12.933,0,0,1-1.98-.494l-.06-.02q-.48-.163-.948-.363l-.007,0c-.294-.127-.583-.267-.868-.415l-.111-.058c-.26-.139-.515-.289-.766-.446L6.9,24.861c-.231-.151-.459-.309-.681-.475l-.068-.053.049-.027,4.025-2.2a2.153,2.153,0,0,0,1.123-1.891V18.386l-.117-.142A8.5,8.5,0,0,1,9.705,15.08l-.046-.2-.174-.113a.844.844,0,0,1-.391-.709v-1.8a.831.831,0,0,1,.284-.623l.168-.152V8.642l0-.067a3.066,3.066,0,0,1,.711-2.22A4.8,4.8,0,0,1,14,5.091a4.809,4.809,0,0,1,3.74,1.255,3.117,3.117,0,0,1,.719,2.23l0,2.9.168.152a.832.832,0,0,1,.284.623v1.8a.85.85,0,0,1-.6.8l-.253.078-.081.252A9.418,9.418,0,0,1,16.7,17.751c-.133.188-.263.355-.375.483l-.126.144v1.883a2.14,2.14,0,0,0,1.19,1.925l4.31,2.155.081.042C21.726,24.426,21.67,24.464,21.615,24.5Z"/></svg>