<svg id="placeholder2" xmlns="http://www.w3.org/2000/svg" width="83.219" height="109.277" viewBox="0 0 83.219 109.277">
  <defs>
    <style>
      .cls-1 {
        fill: #5a5a5a;
      }

      .cls-2 {
        fill: #504f4f;
      }
    </style>
  </defs>
  <path id="Path_552" data-name="Path 552" class="cls-1" d="M102.655.122A41.69,41.69,0,0,0,61.046,41.731,41.229,41.229,0,0,0,69.368,66.7l30.726,41.4a3.676,3.676,0,0,0,2.561,1.28,3.8,3.8,0,0,0,2.561-1.28c.127-.192,31.047-41.844,31.3-42.228.064,0,.064,0,.064-.064A41.6,41.6,0,0,0,102.655.122Zm0,64.014a22.405,22.405,0,1,1,22.4-22.405A22.43,22.43,0,0,1,102.655,64.136Z" transform="translate(-61.046 -0.096)"/>
  <path id="Path_553" data-name="Path 553" class="cls-2" d="M256,0V19.2a22.405,22.405,0,0,1,0,44.81v45.237a3.8,3.8,0,0,0,2.561-1.28c.127-.192,31.047-41.844,31.3-42.228.064,0,.064,0,.064-.064A41.6,41.6,0,0,0,256,0Z" transform="translate(-214.391)"/>
</svg>
