<?xml version="1.0" encoding="utf-8"?>
<!-- Generator: Adobe Illustrator 23.0.0, SVG Export Plug-In . SVG Version: 6.00 Build 0)  -->
<svg version="1.1" id="Layer_1" xmlns="http://www.w3.org/2000/svg" xmlns:xlink="http://www.w3.org/1999/xlink" x="0px" y="0px"
	 viewBox="0 0 581.9 130" style="enable-background:new 0 0 581.9 130;" xml:space="preserve">
<style type="text/css">
	.st0{fill:#1A8922;}
</style>
<g>
	<path class="st0" d="M44.5,0.8h32.3l44.5,128.3H85.5L77.7,104H43.6L36,129.1H0L44.5,0.8z M72,80.5L60.6,40.7L48.7,80.5
		C48.7,80.5,72,80.5,72,80.5z"/>
	<path class="st0" d="M131.9,129.1V0.8H220v30.8h-52.8v21.3h43.1v28.5h-43.1v47.7H131.9L131.9,129.1z"/>
	<path class="st0" d="M258.7,0.8H291l44.5,128.3h-35.8l-7.8-25.1h-34.1l-7.6,25.1h-36L258.7,0.8z M286.3,80.5l-11.5-39.8l-11.9,39.8
		C262.8,80.5,286.3,80.5,286.3,80.5z"/>
	<path class="st0" d="M428.8,123c-4.5,2.3-9.2,4-14.2,5.2c-5,1.2-10.3,1.8-15.8,1.8c-9.8,0-18.6-1.8-26.6-5.5
		c-7.9-3.7-14.7-8.6-20.4-14.6c-5.7-6.1-10-13-13.2-20.8s-4.7-15.9-4.7-24.2c0-8.5,1.7-16.6,4.9-24.4s7.8-14.7,13.6-20.7
		S365.2,9,373.2,5.4S389.9,0,399.5,0c9.8,0,18.6,1.9,26.6,5.7c7.9,3.8,14.7,8.8,20.4,14.9s10,13.2,13.2,21s4.6,15.8,4.6,24.1
		c0,7.9-1.5,15.6-4.2,22.9s-6.8,13.8-12.1,19.6l19.5,21.2h-32.9L428.8,123z M399.1,98.7c2.7,0,4.9-0.2,6.7-0.7l-21.2-23.2h32.9
		l7,7.8c1.3-2.8,2.3-5.7,2.9-8.7c0.6-3,0.9-6.1,0.9-9.3c0-4.3-0.6-8.5-1.8-12.6c-1.2-4-3-7.6-5.5-10.7s-5.6-5.7-9.3-7.5
		c-3.7-1.9-8-2.8-12.9-2.8c-5,0-9.5,1-13.2,3s-6.7,4.6-9.2,7.8c-2.5,3.2-4.2,6.8-5.4,10.8c-1.1,4-1.7,8.1-1.7,12.4s0.6,8.5,1.8,12.6
		c1.2,4,3,7.6,5.5,10.7s5.5,5.7,9.2,7.5C389.7,97.8,394.1,98.7,399.1,98.7z"/>
	<path class="st0" d="M497,0.8l23,55.5l23.5-55.5h38.4l-44.3,85.8v42.5h-35.2V86.3L458.8,0.8C458.8,0.8,497,0.8,497,0.8z"/>
</g>
</svg>
