<?xml version="1.0" encoding="utf-8"?>
<!-- Generator: Adobe Illustrator 23.0.0, SVG Export Plug-In . SVG Version: 6.00 Build 0)  -->
<svg version="1.1" id="Layer_1" xmlns="http://www.w3.org/2000/svg" xmlns:xlink="http://www.w3.org/1999/xlink" x="0px" y="0px"
	 viewBox="0 0 512 512" style="enable-background:new 0 0 512 512;" xml:space="preserve">
<style type="text/css">
	.st0{fill:#1A8922;}
	.st1{fill:#1B325F;}
</style>
<g transform="translate(-78 -19)">
	<g transform="translate(68 1.5)">
		<path class="st0" d="M522,274.9c0.1,41.9-9.9,83.2-29.1,120.5C456.1,217.4,358.6,66.6,329.2,22.8
			C443.3,53.2,522.6,156.7,522,274.9z"/>
		<path class="st1" d="M185.3,28.1c-17.5,20.5-78,123.3-120,247.4C53.2,311.8,43,348.8,34.7,386.1C-4.2,302.8,3.2,205.3,54.2,128.8
			c30.9-46.3,76-81.4,128.6-99.9C183.6,28.6,184.4,28.4,185.3,28.1z"/>
		<path class="st1" d="M324.9,266.1c9.8,7.1,19.7,14,29.3,21.1c-5.1-16.5-11.2-32.7-18.3-48.4c-14.6-35.2-31.1-69.6-49.4-103
			c-6.4-11.7-21.7-35.2-28.8-45.3c-20.2,30.5-38.1,62.5-53.8,95.5c-7.6,15.8-14.4,31.9-20.1,48.5
			C232.8,232.3,281.5,243.2,324.9,266.1z"/>
		<path class="st1" d="M409.6,479.4c-89.3,61.7-208.1,59.5-295-5.6c8.2-90,35.9-140.1,43.5-166.2c118.5-1.8,194.1,47.7,232.8,126.6
			C398.2,448.8,404.4,463.9,409.6,479.4z"/>
	</g>
</g>
</svg>
